<?xml version="1.0" encoding="utf-8"?>
<!-- Generated by IcoMoon.io -->
<svg version="1.1" xmlns="http://www.w3.org/2000/svg" xmlns:xlink="http://www.w3.org/1999/xlink" width="688" height="72" viewBox="0 0 688 72">
<svg id="icon-list-ol" width="28" height="28" viewBox="0 0 28 28" x="0" y="0">
<path d="M5.953 25.312c0 1.719-1.344 2.688-2.969 2.688-0.984 0-1.984-0.328-2.688-1.031l0.891-1.375c0.422 0.391 1.062 0.703 1.656 0.703 0.547 0 1.125-0.266 1.125-0.891 0-0.875-1-0.922-1.641-0.875l-0.406-0.875c0.562-0.719 1.078-1.516 1.75-2.125v-0.016c-0.5 0-1.016 0.031-1.516 0.031v0.828h-1.656v-2.375h5.203v1.375l-1.484 1.797c1.047 0.25 1.734 1.062 1.734 2.141zM5.984 15.516v2.484h-5.656c-0.047-0.281-0.094-0.562-0.094-0.844 0-2.891 3.531-3.328 3.531-4.641 0-0.531-0.328-0.812-0.844-0.812-0.547 0-1 0.469-1.266 0.906l-1.328-0.922c0.516-1.078 1.578-1.687 2.766-1.687 1.453 0 2.703 0.859 2.703 2.406 0 2.312-3.391 2.828-3.437 4.047h1.984v-0.938h1.641zM28 20.5v3c0 0.266-0.234 0.5-0.5 0.5h-19c-0.281 0-0.5-0.234-0.5-0.5v-3c0-0.281 0.219-0.5 0.5-0.5h19c0.266 0 0.5 0.219 0.5 0.5zM6 6.453v1.547h-5.234v-1.547h1.672c0-1.266 0.016-2.531 0.016-3.797v-0.187h-0.031c-0.172 0.344-0.484 0.578-0.781 0.844l-1.109-1.188 2.125-1.984h1.656v6.312h1.687zM28 12.5v3c0 0.266-0.234 0.5-0.5 0.5h-19c-0.281 0-0.5-0.234-0.5-0.5v-3c0-0.281 0.219-0.5 0.5-0.5h19c0.266 0 0.5 0.219 0.5 0.5zM28 4.5v3c0 0.266-0.234 0.5-0.5 0.5h-19c-0.281 0-0.5-0.234-0.5-0.5v-3c0-0.266 0.219-0.5 0.5-0.5h19c0.266 0 0.5 0.234 0.5 0.5z"></path>
</svg>
<svg id="icon-tag" width="24" height="28" viewBox="0 0 24 28" x="44" y="0">
<path d="M7 7c0-1.109-0.891-2-2-2s-2 0.891-2 2 0.891 2 2 2 2-0.891 2-2zM23.672 16c0 0.531-0.219 1.047-0.578 1.406l-7.672 7.688c-0.375 0.359-0.891 0.578-1.422 0.578s-1.047-0.219-1.406-0.578l-11.172-11.188c-0.797-0.781-1.422-2.297-1.422-3.406v-6.5c0-1.094 0.906-2 2-2h6.5c1.109 0 2.625 0.625 3.422 1.422l11.172 11.156c0.359 0.375 0.578 0.891 0.578 1.422z"></path>
</svg>
<svg id="icon-plus" width="22" height="28" viewBox="0 0 22 28" x="88" y="0">
<path d="M22 11.5v3c0 0.828-0.672 1.5-1.5 1.5h-6.5v6.5c0 0.828-0.672 1.5-1.5 1.5h-3c-0.828 0-1.5-0.672-1.5-1.5v-6.5h-6.5c-0.828 0-1.5-0.672-1.5-1.5v-3c0-0.828 0.672-1.5 1.5-1.5h6.5v-6.5c0-0.828 0.672-1.5 1.5-1.5h3c0.828 0 1.5 0.672 1.5 1.5v6.5h6.5c0.828 0 1.5 0.672 1.5 1.5z"></path>
</svg>
<svg id="icon-sign-out" width="25" height="28" viewBox="0 0 25 28" x="132" y="0">
<path d="M10 22.5c0 0.438 0.203 1.5-0.5 1.5h-5c-2.484 0-4.5-2.016-4.5-4.5v-11c0-2.484 2.016-4.5 4.5-4.5h5c0.266 0 0.5 0.234 0.5 0.5 0 0.438 0.203 1.5-0.5 1.5h-5c-1.375 0-2.5 1.125-2.5 2.5v11c0 1.375 1.125 2.5 2.5 2.5h4.5c0.391 0 1-0.078 1 0.5zM24.5 14c0 0.266-0.109 0.516-0.297 0.703l-8.5 8.5c-0.187 0.187-0.438 0.297-0.703 0.297-0.547 0-1-0.453-1-1v-4.5h-7c-0.547 0-1-0.453-1-1v-6c0-0.547 0.453-1 1-1h7v-4.5c0-0.547 0.453-1 1-1 0.266 0 0.516 0.109 0.703 0.297l8.5 8.5c0.187 0.187 0.297 0.438 0.297 0.703z"></path>
</svg>
<svg id="icon-sign-in" width="24" height="28" viewBox="0 0 24 28" x="176" y="0">
<path d="M18.5 14c0 0.266-0.109 0.516-0.297 0.703l-8.5 8.5c-0.187 0.187-0.438 0.297-0.703 0.297-0.547 0-1-0.453-1-1v-4.5h-7c-0.547 0-1-0.453-1-1v-6c0-0.547 0.453-1 1-1h7v-4.5c0-0.547 0.453-1 1-1 0.266 0 0.516 0.109 0.703 0.297l8.5 8.5c0.187 0.187 0.297 0.438 0.297 0.703zM24 8.5v11c0 2.484-2.016 4.5-4.5 4.5h-5c-0.266 0-0.5-0.234-0.5-0.5 0-0.438-0.203-1.5 0.5-1.5h5c1.375 0 2.5-1.125 2.5-2.5v-11c0-1.375-1.125-2.5-2.5-2.5h-4.5c-0.391 0-1 0.078-1-0.5 0-0.438-0.203-1.5 0.5-1.5h5c2.484 0 4.5 2.016 4.5 4.5z"></path>
</svg>
<svg id="icon-angle-down" width="18" height="28" viewBox="0 0 18 28" x="220" y="0">
<path d="M16.797 11.5c0 0.125-0.063 0.266-0.156 0.359l-7.281 7.281c-0.094 0.094-0.234 0.156-0.359 0.156s-0.266-0.063-0.359-0.156l-7.281-7.281c-0.094-0.094-0.156-0.234-0.156-0.359s0.063-0.266 0.156-0.359l0.781-0.781c0.094-0.094 0.219-0.156 0.359-0.156 0.125 0 0.266 0.063 0.359 0.156l6.141 6.141 6.141-6.141c0.094-0.094 0.234-0.156 0.359-0.156s0.266 0.063 0.359 0.156l0.781 0.781c0.094 0.094 0.156 0.234 0.156 0.359z"></path>
</svg>
<svg id="icon-angle-up" width="18" height="28" viewBox="0 0 18 28" x="264" y="0">
<path d="M16.797 18.5c0 0.125-0.063 0.266-0.156 0.359l-0.781 0.781c-0.094 0.094-0.219 0.156-0.359 0.156-0.125 0-0.266-0.063-0.359-0.156l-6.141-6.141-6.141 6.141c-0.094 0.094-0.234 0.156-0.359 0.156s-0.266-0.063-0.359-0.156l-0.781-0.781c-0.094-0.094-0.156-0.234-0.156-0.359s0.063-0.266 0.156-0.359l7.281-7.281c0.094-0.094 0.234-0.156 0.359-0.156s0.266 0.063 0.359 0.156l7.281 7.281c0.094 0.094 0.156 0.234 0.156 0.359z"></path>
</svg>
<svg id="icon-angle-right" width="9" height="28" viewBox="0 0 9 28" x="308" y="0">
<path d="M9.297 15c0 0.125-0.063 0.266-0.156 0.359l-7.281 7.281c-0.094 0.094-0.234 0.156-0.359 0.156s-0.266-0.063-0.359-0.156l-0.781-0.781c-0.094-0.094-0.156-0.219-0.156-0.359 0-0.125 0.063-0.266 0.156-0.359l6.141-6.141-6.141-6.141c-0.094-0.094-0.156-0.234-0.156-0.359s0.063-0.266 0.156-0.359l0.781-0.781c0.094-0.094 0.234-0.156 0.359-0.156s0.266 0.063 0.359 0.156l7.281 7.281c0.094 0.094 0.156 0.234 0.156 0.359z"></path>
</svg>
<svg id="icon-angle-left" width="11" height="28" viewBox="0 0 11 28" x="352" y="0">
<path d="M9.797 8.5c0 0.125-0.063 0.266-0.156 0.359l-6.141 6.141 6.141 6.141c0.094 0.094 0.156 0.234 0.156 0.359s-0.063 0.266-0.156 0.359l-0.781 0.781c-0.094 0.094-0.234 0.156-0.359 0.156s-0.266-0.063-0.359-0.156l-7.281-7.281c-0.094-0.094-0.156-0.234-0.156-0.359s0.063-0.266 0.156-0.359l7.281-7.281c0.094-0.094 0.234-0.156 0.359-0.156s0.266 0.063 0.359 0.156l0.781 0.781c0.094 0.094 0.156 0.219 0.156 0.359z"></path>
</svg>
<svg id="icon-check-square" width="24" height="28" viewBox="0 0 24 28" x="396" y="0">
<path d="M10.703 20.297l9.594-9.594c0.391-0.391 0.391-1.016 0-1.406l-1.594-1.594c-0.391-0.391-1.016-0.391-1.406 0l-7.297 7.297-3.297-3.297c-0.391-0.391-1.016-0.391-1.406 0l-1.594 1.594c-0.391 0.391-0.391 1.016 0 1.406l5.594 5.594c0.391 0.391 1.016 0.391 1.406 0zM24 6.5v15c0 2.484-2.016 4.5-4.5 4.5h-15c-2.484 0-4.5-2.016-4.5-4.5v-15c0-2.484 2.016-4.5 4.5-4.5h15c2.484 0 4.5 2.016 4.5 4.5z"></path>
</svg>
<svg id="icon-minus-square" width="24" height="28" viewBox="0 0 24 28" x="440" y="0">
<path d="M20 15v-2c0-0.547-0.453-1-1-1h-14c-0.547 0-1 0.453-1 1v2c0 0.547 0.453 1 1 1h14c0.547 0 1-0.453 1-1zM24 6.5v15c0 2.484-2.016 4.5-4.5 4.5h-15c-2.484 0-4.5-2.016-4.5-4.5v-15c0-2.484 2.016-4.5 4.5-4.5h15c2.484 0 4.5 2.016 4.5 4.5z"></path>
</svg>
<svg id="icon-square" width="24" height="28" viewBox="0 0 24 28" x="484" y="0">
<path d="M24 6.5v15c0 2.484-2.016 4.5-4.5 4.5h-15c-2.484 0-4.5-2.016-4.5-4.5v-15c0-2.484 2.016-4.5 4.5-4.5h15c2.484 0 4.5 2.016 4.5 4.5z"></path>
</svg>
<svg id="icon-cog" width="24" height="28" viewBox="0 0 24 28" x="528" y="0">
<path d="M16 14c0-2.203-1.797-4-4-4s-4 1.797-4 4 1.797 4 4 4 4-1.797 4-4zM24 12.297v3.469c0 0.234-0.187 0.516-0.438 0.562l-2.891 0.438c-0.172 0.5-0.359 0.969-0.609 1.422 0.531 0.766 1.094 1.453 1.672 2.156 0.094 0.109 0.156 0.25 0.156 0.391s-0.047 0.25-0.141 0.359c-0.375 0.5-2.484 2.797-3.016 2.797-0.141 0-0.281-0.063-0.406-0.141l-2.156-1.687c-0.453 0.234-0.938 0.438-1.422 0.594-0.109 0.953-0.203 1.969-0.453 2.906-0.063 0.25-0.281 0.438-0.562 0.438h-3.469c-0.281 0-0.531-0.203-0.562-0.469l-0.438-2.875c-0.484-0.156-0.953-0.344-1.406-0.578l-2.203 1.672c-0.109 0.094-0.25 0.141-0.391 0.141s-0.281-0.063-0.391-0.172c-0.828-0.75-1.922-1.719-2.578-2.625-0.078-0.109-0.109-0.234-0.109-0.359 0-0.141 0.047-0.25 0.125-0.359 0.531-0.719 1.109-1.406 1.641-2.141-0.266-0.5-0.484-1.016-0.641-1.547l-2.859-0.422c-0.266-0.047-0.453-0.297-0.453-0.562v-3.469c0-0.234 0.187-0.516 0.422-0.562l2.906-0.438c0.156-0.5 0.359-0.969 0.609-1.437-0.531-0.75-1.094-1.453-1.672-2.156-0.094-0.109-0.156-0.234-0.156-0.375s0.063-0.25 0.141-0.359c0.375-0.516 2.484-2.797 3.016-2.797 0.141 0 0.281 0.063 0.406 0.156l2.156 1.672c0.453-0.234 0.938-0.438 1.422-0.594 0.109-0.953 0.203-1.969 0.453-2.906 0.063-0.25 0.281-0.438 0.562-0.438h3.469c0.281 0 0.531 0.203 0.562 0.469l0.438 2.875c0.484 0.156 0.953 0.344 1.406 0.578l2.219-1.672c0.094-0.094 0.234-0.141 0.375-0.141s0.281 0.063 0.391 0.156c0.828 0.766 1.922 1.734 2.578 2.656 0.078 0.094 0.109 0.219 0.109 0.344 0 0.141-0.047 0.25-0.125 0.359-0.531 0.719-1.109 1.406-1.641 2.141 0.266 0.5 0.484 1.016 0.641 1.531l2.859 0.438c0.266 0.047 0.453 0.297 0.453 0.562z"></path>
</svg>
<svg id="icon-user-circle" width="28" height="28" viewBox="0 0 28 28" x="572" y="0">
<path d="M23.797 20.922c-0.406-2.922-1.594-5.516-4.25-5.875-1.375 1.5-3.359 2.453-5.547 2.453s-4.172-0.953-5.547-2.453c-2.656 0.359-3.844 2.953-4.25 5.875 2.172 3.063 5.75 5.078 9.797 5.078s7.625-2.016 9.797-5.078zM20 10c0-3.313-2.688-6-6-6s-6 2.688-6 6 2.688 6 6 6 6-2.688 6-6zM28 14c0 7.703-6.25 14-14 14-7.734 0-14-6.281-14-14 0-7.734 6.266-14 14-14s14 6.266 14 14z"></path>
</svg>
<svg id="icon-user-times" width="32" height="28" viewBox="0 0 32 28" x="616" y="0">
<path d="M11 14c-3.313 0-6-2.688-6-6s2.688-6 6-6 6 2.688 6 6-2.688 6-6 6zM27.828 19l3.891 3.891c0.094 0.094 0.141 0.219 0.141 0.359 0 0.125-0.047 0.25-0.141 0.344l-2.125 2.125c-0.094 0.094-0.219 0.141-0.344 0.141-0.141 0-0.266-0.047-0.359-0.141l-3.891-3.891-3.891 3.891c-0.094 0.094-0.219 0.141-0.359 0.141-0.125 0-0.25-0.047-0.344-0.141l-2.125-2.125c-0.094-0.094-0.141-0.219-0.141-0.344 0-0.141 0.047-0.266 0.141-0.359l3.891-3.891-3.891-3.891c-0.094-0.094-0.141-0.219-0.141-0.359 0-0.125 0.047-0.25 0.141-0.344l2.125-2.125c0.094-0.094 0.219-0.141 0.344-0.141 0.141 0 0.266 0.047 0.359 0.141l3.891 3.891 3.891-3.891c0.094-0.094 0.219-0.141 0.359-0.141 0.125 0 0.25 0.047 0.344 0.141l2.125 2.125c0.094 0.094 0.141 0.219 0.141 0.344 0 0.141-0.047 0.266-0.141 0.359zM20.047 19l-2.828 2.828c-0.375 0.375-0.578 0.891-0.578 1.422 0 0.516 0.203 1.031 0.578 1.406l1.297 1.297c-0.219 0.031-0.453 0.047-0.688 0.047h-13.656c-2.5 0-4.172-1.5-4.172-4.047 0-3.531 0.828-8.953 5.406-8.953 0.25 0 0.422 0.109 0.609 0.266 1.5 1.188 3.031 1.906 4.984 1.906s3.484-0.719 4.984-1.906c0.187-0.156 0.359-0.266 0.609-0.266 0.297 0 0.594 0.031 0.891 0.094-0.516 0.5-0.844 0.906-0.844 1.656 0 0.531 0.203 1.047 0.578 1.422z"></path>
</svg>
<svg id="icon-group" width="30" height="28" viewBox="0 0 30 28" x="0" y="44">
<path d="M9.266 14c-1.625 0.047-3.094 0.75-4.141 2h-2.094c-1.563 0-3.031-0.75-3.031-2.484 0-1.266-0.047-5.516 1.937-5.516 0.328 0 1.953 1.328 4.062 1.328 0.719 0 1.406-0.125 2.078-0.359-0.047 0.344-0.078 0.688-0.078 1.031 0 1.422 0.453 2.828 1.266 4zM26 23.953c0 2.531-1.672 4.047-4.172 4.047h-13.656c-2.5 0-4.172-1.516-4.172-4.047 0-3.531 0.828-8.953 5.406-8.953 0.531 0 2.469 2.172 5.594 2.172s5.063-2.172 5.594-2.172c4.578 0 5.406 5.422 5.406 8.953zM10 4c0 2.203-1.797 4-4 4s-4-1.797-4-4 1.797-4 4-4 4 1.797 4 4zM21 10c0 3.313-2.688 6-6 6s-6-2.688-6-6 2.688-6 6-6 6 2.688 6 6zM30 13.516c0 1.734-1.469 2.484-3.031 2.484h-2.094c-1.047-1.25-2.516-1.953-4.141-2 0.812-1.172 1.266-2.578 1.266-4 0-0.344-0.031-0.688-0.078-1.031 0.672 0.234 1.359 0.359 2.078 0.359 2.109 0 3.734-1.328 4.062-1.328 1.984 0 1.937 4.25 1.937 5.516zM28 4c0 2.203-1.797 4-4 4s-4-1.797-4-4 1.797-4 4-4 4 1.797 4 4z"></path>
</svg>
<svg id="icon-user-plus" width="32" height="28" viewBox="0 0 32 28" x="44" y="44">
<path d="M11 14c-3.313 0-6-2.688-6-6s2.688-6 6-6 6 2.688 6 6-2.688 6-6 6zM26 16h5.5c0.266 0 0.5 0.234 0.5 0.5v3c0 0.266-0.234 0.5-0.5 0.5h-5.5v5.5c0 0.266-0.234 0.5-0.5 0.5h-3c-0.266 0-0.5-0.234-0.5-0.5v-5.5h-5.5c-0.266 0-0.5-0.234-0.5-0.5v-3c0-0.266 0.234-0.5 0.5-0.5h5.5v-5.5c0-0.266 0.234-0.5 0.5-0.5h3c0.266 0 0.5 0.234 0.5 0.5v5.5zM14.5 19.5c0 1.094 0.906 2 2 2h4v3.719c-0.766 0.562-1.734 0.781-2.672 0.781h-13.656c-2.5 0-4.172-1.5-4.172-4.047 0-3.531 0.828-8.953 5.406-8.953 0.25 0 0.422 0.109 0.609 0.266 1.531 1.172 3.016 1.906 4.984 1.906s3.453-0.734 4.984-1.906c0.187-0.156 0.359-0.266 0.609-0.266 1.328 0 2.5 0.5 3.391 1.5h-3.484c-1.094 0-2 0.906-2 2v3z"></path>
</svg>
<svg id="icon-user" width="20" height="28" viewBox="0 0 20 28" x="88" y="44">
<path d="M20 21.859c0 2.281-1.5 4.141-3.328 4.141h-13.344c-1.828 0-3.328-1.859-3.328-4.141 0-4.109 1.016-8.859 5.109-8.859 1.266 1.234 2.984 2 4.891 2s3.625-0.766 4.891-2c4.094 0 5.109 4.75 5.109 8.859zM16 8c0 3.313-2.688 6-6 6s-6-2.688-6-6 2.688-6 6-6 6 2.688 6 6z"></path>
</svg>
<svg id="icon-map" width="28" height="28" viewBox="0 0 28 28" x="132" y="44">
<path d="M8 0c0.266 0 0.5 0.234 0.5 0.5v23c0 0.187-0.109 0.359-0.266 0.438l-7.5 4c-0.078 0.047-0.156 0.063-0.234 0.063-0.266 0-0.5-0.234-0.5-0.5v-23c0-0.187 0.109-0.359 0.266-0.438l7.5-4c0.078-0.047 0.156-0.063 0.234-0.063zM27.5 0c0.266 0 0.5 0.234 0.5 0.5v23c0 0.187-0.109 0.359-0.266 0.438l-7.5 4c-0.078 0.047-0.156 0.063-0.234 0.063-0.266 0-0.5-0.234-0.5-0.5v-23c0-0.187 0.109-0.359 0.266-0.438l7.5-4c0.078-0.047 0.156-0.063 0.234-0.063zM10 0c0.078 0 0.156 0.016 0.219 0.047l8 4c0.172 0.094 0.281 0.266 0.281 0.453v23c0 0.266-0.234 0.5-0.5 0.5-0.078 0-0.156-0.016-0.219-0.047l-8-4c-0.172-0.094-0.281-0.266-0.281-0.453v-23c0-0.266 0.234-0.5 0.5-0.5z"></path>
</svg>
<svg id="icon-map-marker" width="16" height="28" viewBox="0 0 16 28" x="176" y="44">
<path d="M12 10c0-2.203-1.797-4-4-4s-4 1.797-4 4 1.797 4 4 4 4-1.797 4-4zM16 10c0 0.953-0.109 1.937-0.516 2.797l-5.688 12.094c-0.328 0.688-1.047 1.109-1.797 1.109s-1.469-0.422-1.781-1.109l-5.703-12.094c-0.406-0.859-0.516-1.844-0.516-2.797 0-4.422 3.578-8 8-8s8 3.578 8 8z"></path>
</svg>
<svg id="icon-home" width="26" height="28" viewBox="0 0 26 28" x="220" y="44">
<path d="M22 15.5v7.5c0 0.547-0.453 1-1 1h-6v-6h-4v6h-6c-0.547 0-1-0.453-1-1v-7.5c0-0.031 0.016-0.063 0.016-0.094l8.984-7.406 8.984 7.406c0.016 0.031 0.016 0.063 0.016 0.094zM25.484 14.422l-0.969 1.156c-0.078 0.094-0.203 0.156-0.328 0.172h-0.047c-0.125 0-0.234-0.031-0.328-0.109l-10.813-9.016-10.813 9.016c-0.109 0.078-0.234 0.125-0.375 0.109-0.125-0.016-0.25-0.078-0.328-0.172l-0.969-1.156c-0.172-0.203-0.141-0.531 0.063-0.703l11.234-9.359c0.656-0.547 1.719-0.547 2.375 0l3.813 3.187v-3.047c0-0.281 0.219-0.5 0.5-0.5h3c0.281 0 0.5 0.219 0.5 0.5v6.375l3.422 2.844c0.203 0.172 0.234 0.5 0.063 0.703z"></path>
</svg>
</svg>
