<?xml version="1.0" standalone="no"?>
<!DOCTYPE svg PUBLIC "-//W3C//DTD SVG 20010904//EN"
        "http://www.w3.org/TR/2001/REC-SVG-20010904/DTD/svg10.dtd">
<svg version="1.0" xmlns="http://www.w3.org/2000/svg"
     width="1024.000000pt" height="1024.000000pt" viewBox="0 0 1024.000000 1024.000000"
     preserveAspectRatio="xMidYMid meet">
    <metadata>
        Created by potrace 1.11, written by Peter Selinger 2001-2013
    </metadata>
    <g transform="translate(0.000000,1024.000000) scale(0.100000,-0.100000)"
       fill="#000000" stroke="none">
        <path d="M4975 8939 c-430 -33 -975 -170 -1290 -325 -87 -43 -95 -44 -225 -54
-74 -5 -250 -14 -390 -20 -140 -6 -264 -12 -275 -15 -11 -2 -101 -9 -200 -15
-184 -11 -639 -50 -823 -71 -94 -11 -101 -13 -82 -26 16 -12 61 -16 188 -17
92 -2 205 -4 252 -6 79 -3 81 -4 35 -10 -30 -4 33 -7 155 -8 184 -1 294 2 805
23 128 6 138 5 121 -9 -14 -11 -42 -16 -93 -16 -41 0 -115 -5 -166 -10 -90
-10 -270 -19 -832 -40 -154 -6 -345 -13 -425 -17 -139 -6 -142 -7 -80 -15 74
-10 177 -14 400 -17 104 -1 150 -4 140 -11 -10 -7 18 -10 88 -10 76 0 101 -3
96 -12 -5 -8 20 -9 102 -4 60 4 127 9 149 12 30 4 36 3 25 -5 -8 -6 -34 -11
-57 -11 -25 0 -43 -5 -43 -11 0 -7 10 -9 27 -4 14 3 116 6 225 5 128 0 198 3
198 10 0 5 5 10 11 10 8 0 8 -5 -1 -15 -7 -8 -23 -15 -35 -15 -12 0 -62 -7
-111 -16 -61 -10 -176 -17 -369 -19 -575 -9 -1076 -25 -1070 -35 2 -4 -179
-10 -403 -14 -224 -3 -427 -11 -452 -17 -25 -6 -124 -12 -220 -14 -96 -1 -214
-8 -263 -15 -80 -12 -87 -15 -87 -35 0 -16 8 -25 27 -29 65 -17 375 -34 488
-28 17 1 185 0 375 -3 260 -3 379 -1 485 10 77 8 147 15 155 14 32 -2 -59 -18
-140 -25 -134 -11 -141 -25 -10 -19 228 10 444 14 393 7 -84 -12 -75 -25 12
-18 44 4 82 10 85 14 3 4 51 8 108 9 68 1 108 6 118 14 14 11 18 11 28 -2 12
-17 70 -15 93 3 7 6 20 5 33 -2 12 -7 34 -9 49 -5 14 3 64 8 111 9 52 2 73 0
55 -4 l-30 -8 37 -1 c20 0 40 4 43 9 10 16 121 12 135 -5 10 -12 10 -15 -1
-15 -12 0 -12 -2 0 -9 10 -6 -24 -46 -128 -151 -298 -302 -519 -601 -699 -948
-214 -414 -336 -798 -404 -1279 -30 -215 -33 -742 -5 -953 82 -612 274 -1141
589 -1627 44 -67 78 -127 76 -132 -5 -14 -83 -112 -153 -190 -74 -83 -190
-230 -230 -292 -47 -72 -149 -198 -161 -199 -6 0 -28 -26 -49 -57 -21 -32 -55
-79 -76 -104 -39 -47 -49 -66 -27 -53 7 4 8 3 4 -5 -4 -6 -11 -9 -16 -6 -11 7
-73 -72 -66 -84 4 -5 -19 -31 -49 -56 -30 -26 -55 -51 -55 -55 0 -8 666 -5
795 4 47 3 60 2 40 -3 -27 -8 -26 -9 18 -10 27 0 46 3 43 8 -6 9 72 21 136 21
20 0 40 -5 44 -12 5 -8 1 -9 -12 -4 -14 5 -16 4 -7 -5 6 -6 16 -8 21 -5 11 6
36 7 652 5 195 0 452 0 570 1 118 1 289 -3 379 -10 123 -10 165 -10 170 -1 6
8 48 9 167 1 87 -5 186 -9 219 -8 l60 1 -65 7 c-56 6 -49 7 54 8 108 2 118 3
100 17 -17 13 -14 14 39 15 31 0 66 -5 77 -12 10 -7 23 -9 27 -5 4 5 1 12 -7
17 -12 8 -11 10 6 10 11 0 28 6 38 13 16 12 15 15 -23 40 -23 15 -41 29 -41
32 0 6 120 -64 142 -82 9 -8 22 -13 28 -11 7 2 -55 41 -137 88 -234 132 -613
360 -635 382 -19 19 -191 125 -328 203 -132 74 -207 123 -368 237 -159 113
-218 162 -253 209 l-19 27 71 88 c39 48 83 105 96 125 14 21 31 40 39 43 8 3
14 11 14 19 0 7 12 24 26 38 14 13 51 60 82 104 71 102 220 292 241 308 9 7
42 50 74 97 90 131 162 229 194 263 17 18 81 103 143 190 62 87 122 163 133
169 15 8 11 -3 -18 -43 -21 -30 -34 -49 -28 -44 22 20 109 131 126 160 l18 30
-20 -23 c-11 -13 -29 -35 -39 -49 -11 -15 -22 -22 -25 -16 -8 12 78 139 137
203 51 55 106 126 106 137 0 4 25 40 55 78 30 39 83 108 116 155 34 47 81 108
104 135 23 28 92 120 153 206 60 85 132 180 160 210 27 30 58 72 70 94 19 37
62 87 62 71 0 -13 -102 -166 -110 -166 -9 0 -78 -94 -115 -155 -52 -86 115
123 221 276 71 103 104 141 104 122 0 -5 29 -40 65 -77 49 -51 60 -59 45 -33
-12 19 -27 38 -35 40 -7 3 -25 26 -40 51 l-26 45 33 48 c18 26 36 51 39 56 8
12 72 -31 64 -42 -2 -5 12 -27 31 -49 19 -23 32 -46 29 -52 -4 -6 24 -50 61
-98 74 -96 91 -115 80 -92 -4 8 2 4 13 -9 12 -13 21 -20 21 -16 0 15 40 -28
55 -58 10 -20 12 -35 5 -47 -7 -13 -1 -27 25 -58 41 -48 46 -66 9 -31 -22 20
-25 21 -16 4 13 -25 102 -112 102 -100 0 5 11 -2 25 -15 14 -13 25 -27 25 -32
0 -5 28 -43 62 -86 101 -126 169 -239 121 -201 -22 18 14 -35 84 -123 29 -37
53 -73 53 -81 0 -7 16 -29 36 -48 19 -18 51 -57 70 -86 19 -28 42 -54 52 -58
9 -3 33 -26 52 -51 19 -25 61 -73 92 -106 31 -34 55 -64 53 -68 -2 -4 10 -23
27 -44 16 -20 28 -39 25 -42 -3 -3 -57 60 -121 140 -64 80 -118 146 -121 146
-6 0 42 -66 120 -163 61 -75 165 -214 287 -381 36 -50 71 -90 76 -89 6 2 21
-12 33 -29 13 -17 18 -28 11 -24 -23 14 -12 -4 53 -88 36 -47 75 -102 88 -123
33 -57 110 -163 118 -163 10 0 109 -135 109 -149 0 -6 4 -11 9 -11 5 0 32 -32
61 -71 l52 -72 -22 -21 c-18 -18 -22 -19 -30 -6 -30 52 -132 180 -139 175 -5
-3 -18 7 -29 22 -33 49 -35 53 -15 46 17 -6 17 -5 -1 15 -10 12 -23 19 -28 16
-4 -3 -7 -2 -6 3 4 10 -112 170 -146 202 -14 14 -26 20 -26 14 0 -6 11 -18 25
-27 14 -9 25 -22 25 -28 0 -18 -40 23 -82 85 -22 32 -59 82 -84 112 -45 56
-54 72 -31 59 7 -5 6 2 -4 16 -9 13 -24 29 -34 34 -23 13 -64 58 -65 69 0 5
-31 50 -69 100 -37 51 -71 102 -75 115 -4 12 -11 22 -15 22 -11 0 -93 98 -95
115 -1 8 -6 18 -11 22 -4 5 -4 1 0 -7 8 -13 7 -13 -8 -1 -18 15 -23 26 -7 16
25 -15 7 16 -24 42 -45 37 -120 130 -147 183 -12 23 -28 44 -36 47 -8 3 -25
28 -39 55 -14 27 -31 51 -39 54 -8 3 -41 43 -73 88 -33 45 -81 105 -106 133
-25 28 -46 57 -46 65 0 8 -7 23 -16 34 -14 17 -15 17 -10 1 10 -30 -12 -9 -53
52 -21 31 -46 63 -55 70 -17 15 -22 36 -6 26 6 -3 10 -2 10 3 0 6 -13 15 -29
20 -30 11 -56 44 -44 56 4 3 -9 23 -29 44 -19 20 -59 71 -88 112 -90 130 -130
184 -130 175 0 -4 -8 -1 -17 6 -34 28 28 -69 75 -116 45 -45 162 -208 162
-226 0 -9 7 -22 15 -29 8 -7 12 -16 10 -21 -3 -4 13 -27 36 -51 54 -57 99
-114 99 -126 0 -5 9 -22 21 -38 16 -22 13 -21 -12 6 l-32 35 20 -33 c11 -19
31 -39 44 -46 13 -6 29 -22 35 -34 6 -13 23 -35 36 -50 14 -15 35 -43 48 -62
14 -19 32 -41 43 -48 18 -14 67 -85 67 -98 0 -4 -10 1 -22 12 -12 10 -2 -7 21
-38 24 -32 46 -58 48 -58 3 0 -7 16 -22 36 -15 19 -25 38 -22 41 3 2 35 -33
72 -79 76 -95 90 -118 75 -118 -5 0 -10 3 -10 8 0 4 -21 30 -46 57 -43 46 -42
44 11 -25 32 -41 62 -74 67 -72 5 1 7 -2 4 -6 -6 -10 61 -102 74 -102 4 0 13
-13 20 -30 7 -16 23 -36 35 -44 13 -9 30 -26 37 -39 7 -14 44 -62 81 -108 37
-46 88 -113 112 -149 24 -36 84 -117 134 -180 87 -110 105 -140 79 -124 -7 5
-1 -8 13 -27 15 -18 31 -34 37 -34 16 0 56 -55 40 -55 -7 0 5 -17 27 -38 22
-20 45 -50 50 -67 6 -16 16 -30 22 -30 13 0 112 -116 166 -195 17 -25 46 -60
64 -79 l34 -35 -78 -79 c-44 -44 -144 -125 -228 -184 -82 -59 -169 -123 -192
-144 -22 -21 -65 -50 -95 -65 -56 -28 -136 -80 -153 -99 -14 -16 -115 -76
-115 -69 0 4 8 13 18 21 30 25 -10 2 -73 -42 -33 -24 -76 -50 -95 -60 -19 -9
-44 -26 -55 -36 -27 -24 -306 -190 -327 -194 -10 -2 -169 -95 -354 -207 l-337
-203 119 -3 c80 -2 114 -6 104 -12 -22 -14 35 -13 62 1 14 8 23 8 31 0 8 -8 4
-11 -13 -11 -23 0 -23 -1 -7 -17 16 -16 53 -18 425 -21 224 -2 677 -6 1007 -9
330 -4 619 -6 643 -6 23 0 74 0 112 0 149 -2 1182 1 1506 4 l342 3 -20 35
c-23 42 -70 100 -152 191 -32 36 -137 169 -232 295 -95 127 -187 246 -204 265
l-32 35 31 -41 c41 -55 39 -66 -4 -24 -44 42 -46 33 -3 -15 20 -24 34 -32 38
-25 5 8 16 0 30 -22 l24 -33 -27 24 c-15 14 -27 20 -27 14 0 -13 45 -55 52
-47 3 3 36 -33 73 -81 37 -47 65 -88 63 -90 -4 -5 -107 105 -207 222 -29 34
-54 69 -55 78 -1 9 -24 44 -50 76 -26 32 -45 62 -42 67 3 5 -23 40 -57 78
-137 153 -180 209 -144 188 16 -10 -5 16 -66 80 -26 28 -57 63 -67 77 l-20 27
49 65 c88 119 302 576 379 807 62 187 125 455 156 665 36 242 46 600 25 866
-18 239 -108 677 -183 894 -133 388 -248 620 -472 955 -285 427 -695 826
-1119 1091 -55 34 -101 63 -103 64 -2 2 27 44 63 95 36 51 65 97 65 103 0 5
12 25 26 44 14 19 24 35 23 37 -2 1 -160 -2 -351 -7 l-346 -9 -199 67 c-372
126 -602 173 -975 200 -218 16 -388 17 -563 4z m630 -124 c72 -5 201 -21 270
-34 28 -6 86 -17 130 -25 44 -9 114 -25 155 -36 41 -12 100 -27 130 -35 53
-13 54 -13 17 -14 -21 -1 -91 12 -155 28 -151 39 -304 66 -489 88 -182 21
-623 24 -788 5 -279 -32 -586 -99 -814 -177 -125 -43 -189 -58 -150 -35 32 18
349 120 451 145 57 13 146 31 198 40 52 8 115 19 140 24 25 5 119 14 210 21
91 7 167 14 170 17 5 5 411 -4 525 -12z m-2745 -395 c-36 -11 -52 -11 -45 0 3
6 21 10 38 9 31 -1 31 -1 7 -9z m710 -10 c-8 -5 -24 -9 -35 -9 l-20 0 20 9
c11 5 27 9 35 9 13 1 13 0 0 -9z m3688 -161 c117 -69 257 -170 345 -248 40
-35 101 -87 137 -116 90 -72 308 -300 423 -442 227 -281 366 -511 544 -898 87
-189 186 -525 233 -786 48 -273 60 -404 60 -666 0 -152 4 -255 10 -258 15 -9
12 -89 -5 -126 l-16 -34 4 49 c3 30 2 43 -4 35 -5 -8 -9 -34 -9 -57 0 -65 -57
-404 -84 -507 -14 -49 -28 -108 -31 -130 -4 -22 -19 -71 -35 -110 -15 -38 -31
-83 -34 -99 -10 -43 -124 -313 -162 -382 -18 -34 -31 -64 -28 -67 4 -3 -28
-66 -70 -139 -96 -167 -92 -162 -104 -154 -7 4 8 40 40 94 135 234 268 533
342 772 125 407 172 751 163 1190 -6 273 -19 391 -68 645 -189 965 -773 1830
-1604 2377 -165 109 -163 108 -146 108 7 0 51 -23 99 -51z m-4023 -29 c-3 -5
-10 -10 -16 -10 -5 0 -9 5 -9 10 0 6 7 10 16 10 8 0 12 -4 9 -10z m-2367 -147
c-10 -2 -26 -2 -35 0 -10 3 -2 5 17 5 19 0 27 -2 18 -5z m1862 -67 c0 -2 -9
-6 -20 -9 -11 -3 -18 -1 -14 4 5 9 34 13 34 5z m200 0 c0 -3 -4 -8 -10 -11 -5
-3 -10 -1 -10 4 0 6 5 11 10 11 6 0 10 -2 10 -4z m2437 -33 c-11 -3 -16 -11
-13 -19 4 -10 -2 -14 -19 -14 -14 0 -25 4 -25 8 0 16 25 32 50 31 18 -1 20 -3
7 -6z m333 -3 c-14 -4 -79 -8 -145 -8 -83 1 -106 3 -75 8 64 10 251 10 220 0z
m167 -5 c0 -11 -12 -15 -46 -14 -25 1 -38 3 -28 6 9 2 17 9 17 14 0 5 13 9 28
9 19 0 29 -5 29 -15z m-3052 -57 c-126 -110 -368 -361 -467 -483 -79 -99 -157
-207 -276 -381 -11 -17 -12 -17 -6 5 4 14 2 21 -4 18 -5 -4 -8 4 -7 18 4 32
13 45 32 45 13 0 13 -3 -2 -26 -9 -14 -14 -28 -11 -31 6 -7 116 164 116 181 0
8 7 20 16 27 9 7 86 96 172 198 180 212 269 304 400 414 110 91 137 103 37 15z
m3140 31 c5 -6 3 -9 -5 -9 -27 0 -60 12 -60 21 0 11 50 1 65 -12z m-195 1 c-1
-16 -31 -40 -51 -41 -24 -2 -24 -2 -1 -6 14 -3 33 5 53 21 28 24 67 36 55 18
-2 -4 11 -6 30 -4 29 4 34 1 34 -16 0 -11 -8 -23 -17 -25 -17 -4 -17 -5 0 -6
10 0 20 6 23 14 4 9 18 14 38 14 l31 -2 -29 -4 c-24 -4 -27 -8 -23 -29 4 -21
1 -24 -15 -18 -13 4 -18 1 -17 -8 7 -30 -15 -73 -92 -180 -44 -62 -96 -137
-115 -166 -19 -29 -39 -50 -43 -47 -5 2 -50 -53 -100 -123 -94 -132 -149 -201
-132 -167 5 11 21 35 35 54 14 19 26 39 26 44 0 12 -106 -126 -230 -301 -56
-79 -98 -148 -94 -154 4 -6 3 -8 -3 -5 -6 4 -30 -22 -54 -58 -23 -35 -47 -61
-51 -59 -4 3 -13 -7 -18 -22 -7 -18 -14 -24 -21 -17 -7 7 -3 23 11 49 20 36 4
23 -21 -16 -8 -13 -10 -13 -19 3 -6 9 -16 17 -21 17 -6 0 3 -17 20 -37 17 -20
28 -39 25 -42 -3 -3 -10 2 -15 12 -6 9 -19 17 -29 17 -22 0 -43 32 -35 52 3 8
-22 46 -60 88 -36 41 -65 79 -65 85 0 15 -46 76 -52 70 -3 -3 -38 38 -78 92
-87 117 -93 124 -85 98 5 -15 0 -12 -19 10 -14 17 -26 25 -26 19 0 -16 55 -65
65 -57 4 5 5 2 1 -5 -8 -14 -20 -9 -53 21 -49 43 -20 1 35 -52 62 -60 137
-151 112 -136 -25 15 7 -24 57 -70 27 -24 45 -50 47 -66 2 -16 26 -49 64 -87
33 -34 66 -72 73 -84 6 -13 -12 2 -41 32 l-52 55 53 -70 c29 -38 56 -75 60
-81 8 -10 -65 -124 -80 -124 -4 0 -12 5 -18 11 -7 7 -9 4 -6 -13 5 -27 -44
-96 -129 -182 -26 -27 -48 -53 -48 -58 0 -6 -40 -60 -88 -121 -49 -62 -136
-176 -195 -254 -59 -79 -111 -143 -116 -143 -10 0 -62 -66 -65 -83 -2 -13 -84
-129 -119 -167 -24 -26 -34 -41 -89 -122 -20 -31 -45 -62 -55 -69 -10 -8 -23
-25 -29 -39 -7 -14 -40 -55 -74 -92 -34 -38 -58 -68 -54 -68 5 0 -10 -19 -32
-42 -45 -48 -103 -127 -127 -173 -8 -16 -36 -51 -62 -77 -28 -29 -44 -52 -39
-59 4 -8 3 -9 -4 -5 -7 4 -13 2 -13 -3 -1 -6 -2 -15 -3 -20 -1 -11 -157 -221
-164 -221 -2 0 -1 8 2 18 10 29 -22 -17 -50 -71 -14 -27 -42 -68 -63 -90 -21
-23 -51 -62 -66 -87 -16 -25 -46 -63 -67 -85 -21 -22 -38 -43 -38 -47 0 -5 -4
-8 -10 -8 -5 0 -7 8 -3 18 3 9 4 15 0 12 -8 -7 -103 -153 -121 -187 -16 -30
-83 -108 -70 -83 4 8 14 23 22 33 8 9 12 17 7 17 -4 0 4 15 19 34 14 19 26 38
26 42 0 4 -17 -15 -37 -42 -20 -27 -40 -51 -44 -54 -4 -3 -24 -30 -45 -60 -20
-30 -53 -73 -73 -95 -20 -22 -49 -56 -65 -75 -19 -23 -31 -30 -34 -22 -2 7
-15 25 -28 39 -31 33 -30 40 1 19 l26 -17 -27 53 c-31 63 -39 72 -30 38 3 -14
3 -19 0 -12 -3 6 -10 10 -15 7 -5 -4 -6 2 -2 11 5 13 3 15 -7 9 -8 -5 -11 -4
-7 3 9 14 -3 43 -14 36 -5 -3 -6 2 -3 10 6 14 -18 68 -41 96 -19 22 -69 150
-61 157 3 4 -1 17 -9 30 -9 13 -13 28 -10 34 4 5 1 16 -5 24 -12 14 -35 110
-86 360 -13 66 -23 147 -22 180 2 75 -7 193 -16 202 -3 4 -3 35 0 70 4 34 3
68 -2 75 -8 11 -10 32 -5 48 1 3 4 25 5 50 2 25 10 106 16 180 7 74 14 183 15
242 0 59 5 111 9 115 5 5 5 -12 1 -36 -5 -29 -4 -41 3 -37 6 3 18 50 27 104 9
53 23 112 31 130 8 18 14 40 14 48 0 29 -17 5 -30 -43 -8 -26 -16 -41 -18 -35
-2 7 6 43 18 80 34 102 33 100 38 72 3 -21 7 -17 28 30 13 30 23 66 23 80 -1
22 -3 20 -20 -15 -23 -49 -25 -35 -3 29 11 31 21 46 29 42 7 -2 16 2 19 10 9
23 7 36 -4 29 -7 -4 -7 2 -1 17 5 13 14 43 21 67 10 37 14 42 22 27 7 -12 4
-28 -11 -58 -25 -52 -21 -61 7 -14 25 42 45 112 37 126 -7 11 23 86 31 77 3
-3 -2 -19 -10 -36 -9 -16 -16 -34 -16 -38 0 -8 41 63 113 197 22 41 53 91 69
110 15 19 28 40 28 47 0 7 5 13 10 13 6 0 35 38 65 84 30 46 58 87 64 90 6 4
8 12 6 19 -6 15 110 131 123 123 5 -3 29 16 53 42 l44 47 -42 -40 c-64 -59
-52 -29 15 37 254 251 356 342 402 361 34 13 129 98 124 110 -6 16 67 68 100
71 24 3 66 24 66 32 0 4 -7 4 -15 0 -26 -9 -16 3 13 18 48 25 36 -10 -16 -50
-25 -19 -42 -34 -38 -34 17 0 122 63 136 82 8 10 60 28 92 32 16 2 35 9 41 16
10 10 7 10 -11 0 -31 -16 -39 -7 -10 12 28 17 125 57 155 62 12 3 32 10 44 16
14 8 19 8 15 1 -10 -16 14 -14 47 4 16 8 47 19 70 25 52 13 87 30 87 43 0 5
-9 7 -21 4 -12 -3 -18 -3 -14 1 9 10 84 9 78 0 -2 -5 -11 -8 -19 -8 -8 0 -14
-4 -14 -10 0 -13 1 -13 43 5 24 10 38 11 42 5 4 -7 29 -8 68 -3 34 4 73 6 87
5 22 -1 159 22 203 34 11 4 17 0 17 -10 0 -12 11 -16 49 -16 56 0 84 8 75 21
-3 5 36 10 88 11 131 3 212 -1 216 -13 2 -5 9 -6 15 -2 31 20 468 41 467 23z
m-1283 -6 c-3 -3 -12 -4 -19 -1 -8 3 -5 6 6 6 11 1 17 -2 13 -5z m120 0 c-3
-3 -12 -4 -19 -1 -8 3 -5 6 6 6 11 1 17 -2 13 -5z m-272 -24 c-3 -5 -12 -10
-18 -10 -7 0 -6 4 3 10 19 12 23 12 15 0z m265 0 c-8 -5 -26 -9 -40 -9 -23 0
-23 1 -5 9 11 5 29 9 40 9 17 1 17 -1 5 -9z m-360 -30 c-8 -5 -19 -10 -25 -10
-5 0 -3 5 5 10 8 5 20 10 25 10 6 0 3 -5 -5 -10z m57 -4 c-20 -8 -43 -18 -50
-23 -15 -12 -54 -27 -44 -17 21 22 85 53 107 53 21 0 18 -2 -13 -13z m-163
-36 c-6 -6 -25 -15 -44 -20 -40 -11 -31 0 13 17 41 15 43 15 31 3z m-93 -44
c-13 -16 -51 -28 -51 -17 0 8 38 29 54 30 5 1 3 -5 -3 -13z m2707 -146 c45
-28 53 -42 10 -19 -16 8 -19 8 -16 -2 2 -7 38 -30 79 -51 40 -22 86 -51 100
-66 56 -58 161 -131 144 -100 -5 7 -5 11 -2 8 3 -3 23 -18 43 -35 48 -38 249
-239 327 -327 33 -37 63 -65 68 -63 8 6 66 -61 61 -70 -7 -14 36 -74 84 -118
30 -27 57 -61 60 -76 4 -14 11 -31 16 -38 5 -7 7 -16 4 -21 -3 -6 10 -36 30
-68 20 -33 33 -48 29 -34 l-6 25 20 -25 c20 -25 111 -192 111 -205 0 -3 -4 -3
-10 0 -5 3 -10 1 -10 -5 0 -6 -5 -8 -11 -4 -7 4 -5 -6 4 -22 8 -16 19 -38 23
-49 6 -17 8 -18 11 -3 2 9 -3 28 -12 42 -16 23 -15 24 4 19 14 -4 24 -19 31
-47 6 -22 17 -62 25 -87 8 -26 15 -59 15 -73 0 -15 7 -29 15 -32 8 -4 15 -14
15 -23 0 -14 2 -14 10 -1 7 12 10 11 15 -5 4 -11 11 -30 16 -43 6 -15 6 -21
-1 -17 -16 10 -12 -10 8 -36 10 -13 26 -51 35 -85 20 -70 21 -85 6 -64 -7 11
-9 -2 -5 -45 4 -33 9 -93 12 -132 4 -40 11 -73 15 -73 5 0 9 -15 10 -32 1 -41
12 -71 24 -66 6 2 13 -16 16 -40 5 -41 -4 -47 -14 -7 -8 33 -6 -76 3 -130 l7
-50 2 68 c2 103 18 71 21 -40 3 -163 0 -221 -15 -250 -8 -16 -15 -46 -16 -68
0 -32 -2 -36 -9 -20 l-9 20 0 -20 c-1 -11 -4 -31 -7 -45 -5 -23 -4 -24 9 -7
13 16 15 16 21 2 3 -9 10 -14 16 -10 11 7 24 -38 17 -57 -3 -7 -6 -2 -6 12 -2
48 -21 -2 -20 -55 0 -49 0 -50 15 -25 9 14 12 16 7 5 -4 -11 -8 -49 -9 -85 -1
-113 -4 -131 -14 -125 -7 4 -8 31 -4 72 5 44 4 64 -3 60 -6 -4 -8 -18 -5 -33
2 -14 0 -29 -7 -33 -6 -4 -16 -43 -21 -87 -5 -43 -20 -111 -34 -150 -27 -74
-33 -120 -16 -109 6 3 10 18 10 33 1 23 29 90 30 70 2 -54 -139 -467 -173
-507 -8 -9 -18 -26 -22 -39 -3 -13 -11 -19 -17 -16 -8 5 -9 1 -4 -12 5 -14 4
-16 -4 -8 -8 8 -5 23 11 57 12 25 25 44 28 42 3 -1 6 10 7 27 1 37 -9 26 -31
-34 -14 -38 -22 -47 -38 -44 -12 1 -23 9 -25 16 -3 7 0 10 6 6 21 -13 21 12 0
30 -43 39 -175 210 -186 242 -6 18 -39 67 -74 108 -35 42 -81 101 -103 130
-22 30 -58 69 -80 87 l-40 32 35 -44 c19 -24 46 -54 59 -68 14 -13 33 -42 43
-66 11 -23 39 -69 64 -102 24 -33 65 -89 92 -125 26 -36 71 -96 100 -133 30
-38 63 -84 74 -103 15 -26 23 -32 29 -22 14 21 10 -5 -4 -30 l-13 -23 -18 20
c-10 11 -22 18 -26 16 -12 -7 -97 100 -164 205 l-29 45 33 -30 c42 -38 29 -15
-30 55 -26 30 -64 77 -85 105 -37 49 -102 98 -118 88 -4 -2 -5 -14 -2 -26 6
-21 5 -21 -6 -3 -7 11 -12 27 -13 36 -1 19 -78 140 -89 140 -4 0 11 -27 33
-60 22 -33 37 -60 33 -59 -14 1 -93 108 -93 125 0 8 -19 32 -41 52 -23 20 -57
61 -76 91 -19 30 -41 61 -49 68 -12 12 -18 32 -16 54 1 3 -20 32 -45 64 -25
32 -40 55 -34 51 23 -14 10 5 -29 44 -22 22 -43 40 -47 40 -16 1 -71 56 -87
88 -9 17 -23 32 -32 32 -8 0 -14 6 -12 13 4 15 -111 159 -122 152 -5 -3 -12 0
-16 6 -4 8 -3 9 4 5 18 -11 14 10 -5 25 -14 12 -16 12 -8 0 5 -10 4 -12 -4 -7
-6 4 -9 11 -6 16 6 10 -75 139 -99 159 -19 16 -20 8 -5 -21 6 -11 8 -22 6 -25
-3 -3 -15 12 -25 34 -11 21 -45 65 -76 98 -30 33 -54 64 -53 69 3 9 -52 92
-132 201 -17 22 -33 49 -37 60 -13 36 -145 205 -160 205 -9 0 -12 -5 -8 -12 4
-7 3 -8 -5 -4 -6 4 -9 12 -6 17 3 5 -13 30 -37 56 -39 43 -79 104 -78 118 0 3
0 9 0 13 0 4 -22 34 -50 67 -27 33 -50 63 -50 68 0 4 -14 26 -31 47 -36 44
-41 32 61 165 43 55 108 145 145 200 38 55 99 141 136 190 36 50 88 124 115
165 27 41 95 136 150 210 55 74 140 188 187 253 48 64 89 117 92 117 3 0 26
-13 53 -30z m362 -10 c8 -5 10 -10 4 -10 -7 0 -22 9 -35 21 -19 16 -20 18 -4
10 11 -6 27 -15 35 -21z m-3520 -74 c0 -2 -8 -10 -17 -17 -16 -13 -17 -12 -4
4 13 16 21 21 21 13z m3785 -125 c73 -75 51 -62 -35 21 -41 40 -61 63 -45 51
17 -12 52 -44 80 -72z m-3865 50 c0 -13 -50 -44 -58 -36 -4 4 4 15 17 26 25
20 41 24 41 10z m3806 -23 l19 -21 -27 18 c-29 18 -34 25 -20 25 5 0 17 -10
28 -22z m374 -57 c19 -17 29 -31 22 -31 -7 0 -32 18 -55 41 -46 44 -23 37 33
-10z m-2086 -10 c-14 -23 -29 -41 -31 -41 -3 0 1 10 9 23 8 12 20 33 27 45 7
13 15 21 18 19 2 -3 -8 -24 -23 -46z m-3294 10 c-5 -11 -15 -23 -22 -27 -7 -5
-8 -2 -3 7 21 37 44 55 25 20z m1020 -49 c0 -5 -11 -14 -25 -20 -26 -12 -33
-4 -13 16 14 14 38 16 38 4z m-30 -45 c0 -2 -10 -12 -22 -23 l-23 -19 19 23
c18 21 26 27 26 19z m-47 -21 c-11 -19 -109 -106 -119 -106 -5 0 18 27 51 60
56 57 86 77 68 46z m4068 -53 c13 -16 12 -17 -3 -4 -10 7 -18 15 -18 17 0 8 8
3 21 -13z m-5151 -20 c0 -5 -10 -19 -21 -33 l-21 -25 18 33 c18 32 24 38 24
25z m5285 -81 c-9 -9 -35 8 -35 24 0 16 2 16 20 -1 11 -10 18 -20 15 -23z
m-4352 -12 c-10 -17 -29 -38 -42 -47 -18 -11 -14 -3 15 31 45 54 52 58 27 16z
m4376 -44 c10 -12 7 -12 -24 -2 -20 7 -41 19 -48 26 -9 10 -9 11 1 6 6 -4 12
-2 12 3 0 6 -4 11 -9 11 -5 0 -12 7 -15 16 -6 16 59 -31 83 -60z m-2135 -11
c-4 -8 -11 -15 -16 -15 -6 0 -5 6 2 15 7 8 14 15 16 15 2 0 1 -7 -2 -15z
m-3299 -97 c-79 -131 -207 -392 -260 -531 -10 -26 -20 -46 -22 -43 -7 6 82
219 143 340 58 119 59 120 43 111 -6 -4 -1 11 10 34 12 23 24 41 27 41 2 0 0
-9 -6 -21 -7 -11 -9 -23 -7 -26 3 -3 13 10 23 29 21 41 65 108 71 108 2 0 -8
-19 -22 -42z m5498 21 c4 -16 3 -18 -9 -8 -7 6 -11 15 -8 20 8 13 11 11 17
-12z m188 4 c13 -16 12 -17 -3 -4 -10 7 -18 15 -18 17 0 8 8 3 21 -13z m-4790
-21 c-5 -10 -18 -25 -27 -33 -16 -12 -17 -12 -9 1 10 18 37 50 42 50 2 0 -1
-8 -6 -18z m2309 -32 c-17 -22 -34 -40 -37 -40 -2 0 10 18 27 40 17 22 34 40
37 40 2 0 -10 -18 -27 -40z m-465 -106 c20 -25 35 -47 33 -49 -2 -3 -21 18
-41 45 -47 63 -42 65 8 4z m3443 -180 c-8 -8 -48 32 -48 48 0 7 12 0 27 -14
15 -15 24 -30 21 -34z m-462 -37 l15 -32 -25 30 c-26 30 -34 51 -16 40 6 -3
17 -21 26 -38z m-5085 -20 c-10 -9 -11 -8 -5 6 3 10 9 15 12 12 3 -3 0 -11 -7
-18z m-41 -47 c-6 -12 -14 -20 -17 -17 -2 3 1 14 8 26 17 26 24 19 9 -9z
m5420 -21 c12 -23 20 -43 18 -45 -3 -2 -14 17 -26 41 -27 56 -20 60 8 4z m-37
16 c4 -8 2 -17 -2 -20 -5 -2 -11 4 -14 15 -6 23 8 27 16 5z m-5452 -108 c-10
-9 -11 -8 -5 6 3 10 9 15 12 12 3 -3 0 -11 -7 -18z m-822 -96 c-6 -18 -13 -30
-15 -28 -2 2 1 18 7 36 6 18 13 30 15 28 2 -2 -1 -18 -7 -36z m4035 -32 c-6
-10 158 -268 195 -306 17 -17 31 -38 31 -46 0 -8 9 -26 20 -40 11 -14 18 -32
15 -39 -3 -8 12 -34 35 -59 42 -44 42 -44 -20 45 -8 11 11 -4 43 -35 36 -35
57 -64 57 -78 0 -14 -4 -20 -11 -15 -13 8 -11 3 45 -79 21 -31 41 -55 44 -53
2 3 -5 17 -15 33 -28 40 -35 53 -28 53 3 0 21 -24 40 -54 19 -30 39 -57 45
-61 5 -3 15 -16 21 -28 7 -15 1 -12 -20 11 -36 38 -40 33 -9 -11 15 -22 17
-28 5 -18 -9 7 -26 28 -38 47 -11 19 -26 34 -33 34 -7 0 -24 13 -39 28 -27 28
-36 49 -16 36 20 -12 -8 30 -51 76 -27 30 -37 37 -29 20 11 -23 11 -24 -5 -11
-9 8 -14 21 -12 30 3 9 -14 39 -39 71 -76 94 -220 283 -255 335 -19 28 -42 59
-52 69 -23 25 -23 24 9 70 l26 39 23 -28 c13 -16 21 -32 18 -36z m118 -79 c11
-8 39 -80 31 -80 -5 0 -17 12 -27 27 -11 14 -14 23 -8 19 24 -14 11 9 -25 48
-30 32 -32 35 -8 16 17 -14 33 -27 37 -30z m-161 -47 c35 -43 51 -67 36 -54
-15 14 -27 22 -27 19 0 -10 82 -132 108 -160 13 -14 22 -31 18 -36 -5 -9 48
-92 59 -92 8 0 -13 38 -25 45 -5 3 -15 16 -20 28 -6 12 5 4 24 -18 21 -24 33
-47 30 -56 -4 -16 69 -113 78 -104 2 2 4 -5 5 -16 2 -18 0 -19 -14 -7 -14 11
-16 11 -8 -2 20 -36 67 -90 74 -85 4 2 18 -10 31 -27 12 -17 18 -28 11 -24
-19 12 -12 -4 14 -36 26 -30 34 -23 14 14 -6 11 -8 22 -6 25 8 7 57 -69 51
-79 -7 -11 24 -48 40 -48 6 0 17 -10 25 -22 l14 -23 -23 20 c-31 26 -20 7 50
-85 73 -97 80 -110 54 -91 -10 7 -1 -4 22 -25 38 -37 210 -261 394 -514 46
-63 95 -131 109 -149 14 -19 20 -32 13 -27 -18 11 24 -57 53 -84 14 -13 25
-19 25 -14 0 6 -13 23 -30 39 -16 16 -30 33 -30 38 0 19 41 -27 77 -85 22 -36
40 -55 49 -51 8 3 26 -16 49 -51 19 -30 35 -58 35 -62 0 -3 23 -33 50 -66 28
-33 50 -66 50 -75 0 -20 59 -105 70 -98 9 6 75 -73 68 -81 -3 -2 -18 14 -33
36 -46 66 -40 37 7 -34 24 -36 48 -66 53 -66 6 0 19 -15 30 -32 10 -18 48 -63
83 -99 58 -61 109 -129 96 -129 -3 0 18 -33 46 -73 l51 -74 -21 -41 c-28 -54
-34 -57 -53 -28 -9 13 -30 39 -46 57 -17 18 -31 37 -31 42 0 15 -94 127 -159
192 -60 59 -86 101 -34 54 43 -38 -44 68 -97 119 -25 24 -39 41 -32 37 6 -3
12 -4 12 -2 0 9 -68 112 -87 132 -11 11 -45 54 -76 96 -31 42 -68 84 -82 93
-14 9 -23 22 -19 28 4 6 3 8 -4 4 -6 -3 -13 -2 -17 4 -3 5 -2 10 4 10 15 0
-111 157 -167 208 -33 30 -43 45 -34 50 9 6 5 15 -14 33 -14 13 -27 23 -30 22
-2 -2 -4 0 -5 5 0 4 -6 14 -13 22 -7 8 -16 23 -19 33 -4 9 -11 16 -16 15 -5
-2 -24 13 -41 32 -48 53 42 -76 197 -282 73 -98 133 -184 133 -192 0 -8 15
-26 33 -40 17 -14 27 -26 21 -26 -18 0 -92 87 -176 206 -99 138 -167 227 -221
284 -23 25 -50 59 -61 75 -10 17 -37 50 -59 75 -21 25 -44 56 -51 70 -6 14
-24 36 -39 49 -15 13 -26 29 -23 36 2 7 -14 33 -38 57 -23 23 -61 71 -85 106
-23 34 -46 60 -51 57 -5 -3 -11 -1 -15 5 -3 5 -11 10 -17 10 -6 0 6 -18 25
-39 20 -22 43 -52 51 -68 8 -15 35 -48 60 -73 25 -24 46 -52 46 -61 0 -9 16
-36 35 -60 19 -24 35 -50 35 -58 0 -7 33 -56 73 -108 73 -96 107 -141 277
-369 52 -69 133 -174 179 -233 46 -58 98 -128 116 -156 17 -27 39 -56 49 -64
18 -15 54 -77 39 -68 -4 3 -26 30 -48 61 -22 30 -48 57 -58 59 -9 3 -24 20
-32 39 -15 35 -56 87 -165 207 -36 39 -65 77 -65 84 0 7 -12 26 -27 43 -43 45
-188 231 -238 303 -25 36 -56 70 -67 76 -12 5 -34 28 -48 52 -15 23 -36 50
-46 59 -11 10 -17 25 -14 35 4 12 -5 26 -29 44 -38 29 -109 122 -109 142 0 7
-4 10 -8 8 -8 -6 -59 51 -59 65 0 5 -19 31 -43 57 -62 71 -145 182 -114 154
35 -32 34 -23 -4 39 -31 51 -63 72 -33 23 29 -49 -44 35 -84 97 -19 30 -65 87
-101 125 -68 72 -131 149 -131 160 0 3 -19 28 -42 56 -24 27 -42 52 -41 56 1
5 -14 27 -34 51 -29 35 -32 44 -21 56 7 7 51 70 98 139 47 70 88 126 92 127 4
0 35 -35 69 -77z m-120 30 c-15 -28 -40 -59 -41 -50 0 16 31 67 41 67 6 0 6
-6 0 -17z m-3961 -148 c-29 -105 -40 -133 -40 -105 0 20 62 221 67 216 2 -2
-10 -52 -27 -111z m6550 40 c1 8 28 -77 30 -94 2 -19 -38 51 -43 74 -3 17 -8
39 -11 50 -4 11 0 7 8 -10 8 -16 16 -25 16 -20z m-5815 -37 c-4 -18 -11 -37
-15 -42 -5 -5 -4 10 2 33 12 48 23 56 13 9z m3105 -19 c-7 -11 -14 -18 -17
-15 -3 3 0 12 7 21 18 21 23 19 10 -6z m-38 -31 c-7 -7 -12 -8 -12 -2 0 14 12
26 19 19 2 -3 -1 -11 -7 -17z m3045 -75 c-6 -5 -37 73 -36 90 0 6 9 -10 20
-37 11 -27 18 -50 16 -53z m-3115 -25 c-7 -7 -12 -20 -12 -29 0 -9 -7 -22 -15
-29 -20 -17 -19 -7 6 41 11 23 23 38 27 35 3 -4 0 -12 -6 -18z m2725 -60 c-3
-8 -6 -5 -6 6 -1 11 2 17 5 13 3 -3 4 -12 1 -19z m-6530 -90 c-3 -8 -6 -5 -6
6 -1 11 2 17 5 13 3 -3 4 -12 1 -19z m6737 -61 c4 -19 3 -26 -4 -22 -5 3 -10
17 -10 30 0 13 -4 27 -10 30 -5 3 -10 16 -10 28 1 19 3 18 14 -8 7 -16 16 -43
20 -58z m-199 42 c9 -17 13 -38 10 -47 -6 -15 -8 -15 -15 3 -12 33 -21 75 -15
75 2 0 12 -14 20 -31z m-5798 -1 c-3 -8 -6 -5 -6 6 -1 11 2 17 5 13 3 -3 4
-12 1 -19z m3269 -55 l48 -58 -43 40 c-38 36 -68 75 -58 75 3 0 26 -26 53 -57z
m486 -6 c12 -18 15 -26 7 -20 -9 7 -18 11 -21 8 -9 -9 -40 33 -33 45 8 14 19
6 47 -33z m37 9 c-3 -3 -11 5 -18 17 -13 21 -12 21 5 5 10 -10 16 -20 13 -22z
m2428 2 c-3 -7 -5 -2 -5 12 0 14 2 19 5 13 2 -7 2 -19 0 -25z m-2227 -72 c0
-5 -9 -1 -20 9 -11 10 -20 25 -20 34 0 12 6 9 20 -9 11 -14 20 -29 20 -34z
m2000 39 c1 6 7 -8 15 -30 9 -22 14 -49 13 -60 -1 -11 4 -59 11 -107 7 -47 11
-94 9 -105 -4 -18 -29 132 -33 197 -4 59 -6 67 -16 40 -8 -22 -8 -21 -4 8 2
17 0 32 -5 32 -6 0 -10 10 -10 23 0 18 2 19 10 7 5 -8 10 -10 10 -5z m-170
-21 c0 -8 -4 -14 -10 -14 -5 0 -10 9 -10 21 0 11 5 17 10 14 6 -3 10 -13 10
-21z m-1979 -36 c16 -29 2 -21 -22 15 -17 23 -18 28 -6 18 10 -8 23 -23 28
-33z m2402 -58 l6 -85 -13 80 c-12 68 -12 105 -1 93 1 -2 5 -41 8 -88z m-2903
55 c13 -14 21 -25 18 -25 -2 0 -15 11 -28 25 -13 14 -21 25 -18 25 2 0 15 -11
28 -25z m2477 -42 c-3 -10 -5 -4 -5 12 0 17 2 24 5 18 2 -7 2 -21 0 -30z m10
-55 c-3 -8 -6 -5 -6 6 -1 11 2 17 5 13 3 -3 4 -12 1 -19z m-1799 -63 c2 2 -5
16 -15 31 -10 16 -12 25 -5 20 6 -4 19 -21 28 -38 9 -16 11 -27 6 -24 -16 10
-25 -13 -12 -29 15 -18 34 -20 24 -2 -22 36 36 -28 89 -98 51 -68 54 -75 22
-45 -23 22 -34 27 -27 15 12 -23 62 -72 62 -61 0 12 53 -48 69 -78 8 -15 41
-57 73 -94 32 -37 53 -69 48 -70 -6 -2 11 -24 37 -50 27 -25 49 -44 50 -42 4
7 37 -43 40 -58 1 -8 18 -38 37 -68 51 -76 37 -67 -25 16 -29 39 -56 70 -59
70 -9 0 -93 116 -90 125 2 10 -33 34 -42 29 -4 -3 -20 16 -35 42 -40 67 -63
95 -73 89 -5 -3 -16 9 -23 27 -8 18 -24 42 -37 53 -12 11 -43 52 -68 90 -24
39 -57 84 -72 100 -15 17 -44 52 -66 80 l-39 50 50 -42 c27 -23 51 -40 53 -38z
m1829 43 c-3 -7 -5 -2 -5 12 0 14 2 19 5 13 2 -7 2 -19 0 -25z m417 -95 c-4
-21 -2 -33 5 -33 6 0 11 -17 11 -37 0 -35 -1 -36 -14 -18 -18 27 -28 99 -20
143 l7 37 9 -30 c4 -16 5 -45 2 -62z m-2774 -8 c13 -14 21 -25 18 -25 -2 0
-15 11 -28 25 -13 14 -21 25 -18 25 2 0 15 -11 28 -25z m2579 -130 c-1 -32
-27 45 -28 80 0 26 2 24 15 -15 7 -25 13 -54 13 -65z m-1848 3 c17 -31 4 -20
-41 35 -43 52 -43 52 -6 17 21 -19 42 -43 47 -52z m-660 35 c13 -16 12 -17 -3
-4 -10 7 -18 15 -18 17 0 8 8 3 21 -13z m722 -22 c20 -29 23 -39 11 -37 -17 3
-64 50 -64 66 0 22 26 8 53 -29z m1974 17 c-3 -8 -6 -5 -6 6 -1 11 2 17 5 13
3 -3 4 -12 1 -19z m-2166 -15 c13 -16 12 -17 -3 -4 -10 7 -18 15 -18 17 0 8 8
3 21 -13z m-4914 -80 c-3 -10 -5 -2 -5 17 0 19 2 27 5 18 2 -10 2 -26 0 -35z
m7100 -65 c-2 -13 -4 -3 -4 22 0 25 2 35 4 23 2 -13 2 -33 0 -45z m-400 5 c-3
-10 -5 -2 -5 17 0 19 2 27 5 18 2 -10 2 -26 0 -35z m-2433 21 c5 -14 4 -15 -9
-4 -17 14 -19 20 -6 20 5 0 12 -7 15 -16z m2573 -66 c-3 -7 -5 -2 -5 12 0 14
2 19 5 13 2 -7 2 -19 0 -25z m20 -5 c-3 -10 -5 -4 -5 12 0 17 2 24 5 18 2 -7
2 -21 0 -30z m246 -23 c3 8 8 22 10 30 3 8 6 -2 6 -23 1 -26 -3 -36 -10 -31
-6 3 -15 0 -20 -7 -6 -9 -8 2 -8 31 1 40 2 42 9 15 4 -20 9 -25 13 -15z m-414
-98 c0 -33 -3 -41 -8 -27 -7 18 -9 17 -19 -10 -10 -29 -10 -29 -11 15 -1 33 2
41 9 30 7 -11 10 -7 10 18 0 20 4 31 10 27 6 -3 10 -27 9 -53z m423 -61 c-6
-3 -12 -17 -14 -31 -4 -24 -2 110 2 140 1 8 7 -12 12 -44 6 -38 6 -61 0 -65z
m-1876 82 c-7 -7 -26 7 -26 19 0 6 6 6 15 -2 9 -7 13 -15 11 -17z m1841 -20
c-3 -10 -5 -2 -5 17 0 19 2 27 5 18 2 -10 2 -26 0 -35z m-1913 -39 c3 -8 2
-12 -4 -9 -6 3 -10 10 -10 16 0 14 7 11 14 -7z m1668 -20 c2 -19 0 -37 -4 -40
-4 -3 -8 13 -8 35 0 51 6 53 12 5z m-6845 -11 c-3 -10 -5 -4 -5 12 0 17 2 24
5 18 2 -7 2 -21 0 -30z m5328 20 c10 -22 14 -43 10 -43 -2 0 -13 14 -25 30
-17 23 -18 30 -7 30 8 0 18 -8 22 -17z m-615 -107 c0 -14 -79 75 -79 89 -1 6
17 -10 39 -34 22 -25 40 -49 40 -55z m2386 -100 c-7 -140 -13 -166 -33 -166
-12 0 -14 -8 -10 -37 5 -28 4 -34 -4 -23 -8 11 -9 7 -4 -17 10 -48 -5 -122
-28 -143 -16 -15 -19 -27 -14 -60 5 -42 -12 -125 -58 -268 -14 -45 -23 -86
-20 -91 3 -5 -4 -30 -15 -55 -20 -48 -37 -65 -20 -20 6 14 10 33 10 42 0 23
-23 -22 -45 -89 -22 -66 -85 -190 -86 -169 0 8 -18 -23 -40 -69 -46 -97 -51
-120 -9 -41 16 30 29 50 30 44 1 -26 -51 -102 -68 -100 -20 3 -23 25 -6 46 19
24 74 138 74 154 0 9 15 44 34 78 19 35 44 88 56 118 11 30 29 73 39 95 24 51
48 136 131 465 19 72 41 197 43 241 2 27 10 53 20 63 11 12 17 33 17 64 0 34
-3 43 -10 32 -9 -13 -10 -13 -10 0 0 8 3 26 7 39 5 21 7 22 16 5 6 -11 7 -64
3 -138z m-1605 59 c35 -34 61 -75 49 -75 -7 0 7 -20 30 -44 42 -44 56 -63 124
-170 52 -81 28 -61 -35 29 -47 67 -67 87 -93 89 -5 1 -16 12 -25 26 -9 14 -11
21 -3 16 27 -16 9 18 -41 82 -30 37 -64 83 -77 102 l-23 35 37 -35 c20 -19 46
-44 57 -55z m-212 45 c10 -5 21 -16 25 -25 4 -12 2 -13 -13 -6 -20 11 -47 41
-37 41 4 0 15 -4 25 -10z m1557 -100 c-15 -34 -15 -34 -16 -8 0 14 -3 34 -7
44 -5 13 -3 16 10 11 12 -4 17 -1 18 11 1 13 3 12 6 -3 2 -12 -3 -36 -11 -55z
m234 23 c-11 -17 -11 -17 -6 0 3 10 6 24 7 30 0 9 2 9 5 0 3 -7 0 -20 -6 -30z
m-1608 -28 c5 -11 -2 -6 -16 10 -14 17 -25 35 -25 40 0 11 25 -20 41 -50z
m1349 -153 c-8 -28 -16 -50 -18 -48 -2 2 2 37 9 77 9 55 14 67 18 49 3 -14 -1
-49 -9 -78z m-1302 -7 c0 -5 -15 8 -34 29 -19 22 -35 44 -35 49 0 6 16 -7 35
-29 19 -21 34 -43 34 -49z m1968 -77 c-3 -8 -6 -5 -6 6 -1 11 2 17 5 13 3 -3
4 -12 1 -19z m-1782 -38 c10 -11 16 -20 13 -20 -3 0 -13 9 -23 20 -10 11 -16
20 -13 20 3 0 13 -9 23 -20z m-74 -42 c31 -44 15 -33 -22 15 -19 23 -26 36
-16 28 10 -8 27 -27 38 -43z m109 -31 c0 -6 -11 0 -25 13 -14 13 -25 28 -25
33 0 6 11 0 25 -13 14 -13 25 -28 25 -33z m1034 -49 c-2 -35 -8 -76 -13 -93
-8 -23 -9 -14 -5 40 6 74 12 115 18 115 2 0 2 -28 0 -62z m-87 30 c-3 -8 -6
-5 -6 6 -1 11 2 17 5 13 3 -3 4 -12 1 -19z m160 -10 c-3 -8 -6 -5 -6 6 -1 11
2 17 5 13 3 -3 4 -12 1 -19z m-1029 -1 c14 -10 16 -27 2 -27 -5 0 -10 7 -10
16 0 8 -4 13 -9 9 -5 -3 -12 -1 -15 4 -7 11 13 9 32 -2z m-5708 -83 c0 -7 3
-21 7 -31 6 -16 5 -17 -9 -2 -8 8 -19 31 -22 50 -7 32 -6 33 9 15 8 -11 15
-25 15 -32z m5656 -72 c-8 -8 -56 39 -56 55 0 7 -11 20 -25 29 -14 9 -25 21
-25 28 0 6 25 -15 56 -48 30 -32 53 -61 50 -64z m309 68 l20 -25 -22 19 c-13
11 -23 24 -23 29 0 6 1 8 3 6 1 -2 11 -15 22 -29z m-310 -10 c10 -11 16 -20
13 -20 -3 0 -13 9 -23 20 -10 11 -16 20 -13 20 3 0 13 -9 23 -20z m95 -32 c15
-21 17 -28 6 -19 -16 13 -41 51 -33 51 2 0 14 -15 27 -32z m251 -5 c13 -16 12
-17 -3 -4 -10 7 -18 15 -18 17 0 8 8 3 21 -13z m-101 -14 c0 -6 -4 -7 -10 -4
-5 3 -10 11 -10 16 0 6 5 7 10 4 6 -3 10 -11 10 -16z m0 -42 c11 -18 23 -32
28 -32 14 0 72 -65 87 -98 8 -18 22 -43 32 -57 l17 -25 -24 20 c-27 23 -22 11
23 -52 17 -24 28 -45 25 -49 -3 -3 -16 12 -29 33 -13 21 -45 65 -72 98 -26 33
-55 75 -64 92 -8 18 -30 50 -49 70 -19 20 -34 41 -34 45 0 17 42 -14 60 -45z
m-5880 22 c0 -5 -4 -9 -10 -9 -5 0 -10 7 -10 16 0 8 5 12 10 9 6 -3 10 -10 10
-16z m5424 -67 c4 -8 1 -10 -7 -6 -22 13 -47 37 -47 46 0 12 48 -23 54 -40z
m16 27 c0 -6 -4 -7 -10 -4 -5 3 -10 11 -10 16 0 6 5 7 10 4 6 -3 10 -11 10
-16z m1171 -26 c-8 -15 -10 -15 -11 -2 0 17 10 32 18 25 2 -3 -1 -13 -7 -23z
m-36 -22 c-4 -17 -11 -31 -16 -31 -12 0 -11 12 1 46 14 35 24 24 15 -15z
m-1270 9 c10 -11 16 -20 13 -20 -3 0 -13 9 -23 20 -10 11 -16 20 -13 20 3 0
13 -9 23 -20z m235 -85 c13 -14 19 -25 14 -25 -8 1 -50 50 -41 50 2 0 14 -11
27 -25z m973 10 c-3 -9 -8 -14 -10 -11 -3 3 -2 9 2 15 9 16 15 13 8 -4z m43
-22 c-8 -15 -15 -25 -16 -21 0 12 23 58 27 54 3 -2 -2 -17 -11 -33z m-6506 -6
c0 -5 -4 -5 -10 -2 -5 3 -10 14 -10 23 0 15 2 15 10 2 5 -8 10 -19 10 -23z
m6471 -21 c-11 -27 -24 -37 -16 -11 3 8 7 22 10 31 3 9 8 15 11 12 2 -3 0 -17
-5 -32z m-870 -158 c30 -39 72 -91 94 -116 23 -25 31 -40 20 -34 -29 15 -108
101 -135 145 -12 21 -44 64 -71 95 -27 31 -49 61 -49 66 0 13 77 -72 141 -156z
m239 130 c0 -6 -6 -5 -15 2 -8 7 -15 14 -15 16 0 2 7 1 15 -2 8 -4 15 -11 15
-16z m-5810 -73 c0 -5 -5 -3 -10 5 -5 8 -10 20 -10 25 0 6 5 3 10 -5 5 -8 10
-19 10 -25z m6291 -12 c-12 -20 -14 -14 -5 12 4 9 9 14 11 11 3 -2 0 -13 -6
-23z m-251 -58 c0 -5 -5 -3 -10 5 -5 8 -10 20 -10 25 0 6 5 3 10 -5 5 -8 10
-19 10 -25z m89 -19 c29 -47 26 -58 -4 -14 -14 20 -25 39 -25 42 0 13 10 4 29
-28z m54 7 c3 -5 -1 -14 -9 -20 -8 -8 -15 -9 -19 -3 -3 6 -1 10 5 10 6 0 8 5
5 10 -3 6 -2 10 4 10 5 0 12 -3 14 -7z m180 -13 c-5 -19 -23 -39 -23 -25 0 9
20 45 24 45 2 0 2 -9 -1 -20z m-33 -80 c-6 -12 -14 -19 -17 -17 -2 3 1 15 7
27 6 12 14 19 17 17 2 -3 -1 -15 -7 -27z m-6225 -86 c28 -63 29 -68 15 -59
-16 10 -57 115 -46 115 4 0 17 -25 31 -56z m5595 15 c0 -6 -4 -7 -10 -4 -5 3
-10 11 -10 16 0 6 5 7 10 4 6 -3 10 -11 10 -16z m-4740 -18 c-5 -11 -15 -23
-22 -27 -7 -5 -8 -2 -3 7 21 37 44 55 25 20z m4281 -23 c8 -15 8 -18 0 -14 -6
4 -16 16 -22 28 -8 15 -8 18 0 14 6 -4 16 -16 22 -28z m543 -60 c-3 -5 21 -36
55 -69 64 -63 71 -76 45 -76 -8 0 -36 28 -62 61 -25 34 -61 79 -79 100 -47 57
-42 79 7 31 21 -21 37 -42 34 -47z m-314 12 c30 -43 18 -37 -16 7 -15 20 -23
33 -16 29 6 -3 21 -20 32 -36z m734 -26 c4 -10 1 -14 -6 -12 -15 5 -23 28 -10
28 5 0 13 -7 16 -16z m-804 -36 c0 -14 -19 1 -31 25 -12 22 -12 22 10 3 11
-11 21 -23 21 -28z m599 5 c-5 -14 -17 -40 -27 -57 -9 -17 -18 -33 -19 -35 -1
-1 -6 0 -12 4 -7 4 -4 15 8 33 10 15 26 39 35 55 21 34 28 35 15 0z m32 -70
c-12 -20 -14 -14 -5 12 4 9 9 14 11 11 3 -2 0 -13 -6 -23z m402 -19 c-17 -27
-17 -28 0 -21 12 5 17 3 15 -5 -7 -19 -27 -21 -34 -4 -8 22 16 80 28 68 6 -6
3 -20 -9 -38z m-362 -107 c-27 -27 -31 -29 -37 -13 -5 12 4 28 27 52 32 34 34
34 37 13 3 -14 -7 -33 -27 -52z m783 -37 c-15 -28 -29 -49 -31 -47 -4 5 47 97
53 97 3 0 -7 -23 -22 -50z m-588 -148 c-12 -12 -16 -13 -16 -3 0 11 -3 11 -15
1 -9 -8 -13 -21 -9 -33 4 -13 2 -18 -7 -15 -23 8 -20 23 12 62 28 33 33 36 42
21 6 -12 5 -22 -7 -33z m464 2 c0 -8 -4 -12 -10 -9 -5 3 -10 10 -10 16 0 5 5
9 10 9 6 0 10 -7 10 -16z m-42 -73 c-7 -11 -16 -21 -20 -21 -12 0 -9 35 4 48
19 19 32 -3 16 -27z m-863 1 c14 -10 18 -42 6 -42 -9 0 -31 31 -31 44 0 8 13
7 25 -2z m-11 -53 c18 -31 18 -31 -3 -20 -27 15 -47 51 -29 51 8 0 22 -14 32
-31z m1107 -184 c42 -55 90 -122 109 -150 19 -27 59 -78 91 -113 31 -35 65
-80 75 -100 9 -20 47 -73 84 -117 37 -44 129 -163 205 -265 76 -102 165 -216
197 -253 85 -99 84 -100 -69 -92 -71 4 -138 11 -151 16 -13 5 -42 8 -65 7
l-42 -1 45 -7 45 -7 -47 -1 c-25 -1 -48 2 -50 7 -1 5 -64 12 -138 15 -115 4
-123 4 -51 -4 46 -5 86 -11 89 -14 3 -3 -70 -6 -162 -6 -109 0 -165 -3 -161
-10 9 -15 -59 -12 -73 2 -7 7 -39 16 -70 20 -31 3 13 4 98 2 95 -3 150 -1 141
4 -7 5 -52 10 -100 12 -200 4 -157 16 84 24 138 4 255 7 260 8 6 0 88 -3 183
-7 122 -6 172 -5 172 3 0 6 -5 14 -11 17 -6 4 -25 29 -42 55 -29 44 -110 147
-253 323 -56 68 -98 86 -46 19 31 -39 52 -74 35 -57 -26 26 -86 108 -75 101
21 -12 13 10 -10 30 -22 19 -23 19 -8 -1 14 -18 14 -19 -2 -6 -10 7 -15 17
-12 22 3 5 -5 19 -18 32 -32 34 -72 112 -64 126 4 6 -7 19 -29 32 -42 25 -138
146 -128 162 3 6 1 7 -5 3 -11 -6 -38 31 -34 47 1 4 -33 54 -76 111 -93 121
-100 132 -81 121 11 -7 12 -6 2 6 -10 12 -9 20 3 37 15 21 15 21 48 -16 18
-20 66 -82 107 -137z m-1205 118 c-14 -15 -22 -31 -19 -36 3 -6 12 -2 19 8 8
10 17 15 21 11 5 -5 0 -13 -11 -20 -10 -6 -52 -39 -95 -73 -42 -35 -84 -63
-93 -63 -9 0 -40 -22 -70 -48 -67 -61 -135 -108 -196 -134 -47 -20 -218 -122
-237 -141 -5 -6 20 7 58 27 37 20 67 35 67 32 0 -10 -122 -76 -130 -71 -5 3
-69 -34 -142 -83 -73 -48 -148 -94 -165 -101 -18 -7 -31 -17 -28 -21 3 -4 -10
-13 -28 -20 -38 -14 -29 -9 -279 -156 -109 -64 -198 -120 -198 -125 0 -5 20
-9 45 -9 46 0 54 -7 33 -28 -19 -19 22 -15 44 5 10 9 18 11 18 5 0 -6 3 -17 6
-26 5 -13 -1 -16 -25 -16 -17 0 -31 -4 -31 -9 0 -4 71 -9 158 -10 86 0 226 -4
310 -7 104 -5 152 -4 152 4 0 6 -37 13 -87 17 -136 10 -130 12 28 11 81 -1
142 -5 135 -9 -6 -5 71 -5 172 -2 128 5 182 3 182 -4 0 -7 -35 -11 -97 -12
-77 -1 -92 -3 -68 -10 33 -11 174 -2 191 12 5 4 55 11 110 13 70 4 89 2 64 -4
-25 -6 -5 -8 68 -4 59 2 101 0 98 -5 -3 -5 63 -12 149 -16 87 -4 152 -11 149
-16 -3 -5 -19 -9 -35 -9 -18 0 -28 -4 -24 -10 4 -6 -10 -10 -34 -10 -22 0 -42
4 -45 8 -8 13 -288 5 -296 -8 -10 -16 -888 -9 -898 7 -5 8 -72 14 -220 19
-117 4 -215 11 -218 16 -3 4 -24 5 -47 2 l-42 -7 19 22 19 21 -99 0 -99 0 80
46 c99 57 338 200 424 254 35 22 67 37 72 34 9 -5 362 196 355 203 -2 3 -21
-6 -43 -20 -51 -32 -83 -49 -83 -43 0 2 21 17 48 32 26 15 58 34 72 43 15 10
21 11 17 4 -13 -20 1 -15 64 23 56 34 77 53 43 40 -9 -3 -12 -2 -9 5 4 5 12 8
18 6 7 -2 30 8 52 23 22 14 96 60 165 100 152 91 266 175 341 252 31 32 63 58
71 58 8 0 25 11 38 25 13 14 27 25 32 25 5 0 -2 -12 -16 -27z m48 -9 c4 -9 1
-22 -4 -30 -23 -26 -309 -244 -388 -294 -95 -60 -104 -80 -12 -26 33 20 66 36
73 36 7 0 -15 -15 -48 -33 -33 -18 -78 -43 -100 -56 -34 -20 -36 -20 -15 -2
41 34 9 24 -50 -16 -33 -22 -48 -28 -36 -15 10 11 66 51 125 88 84 53 253 177
438 321 13 10 14 15 3 28 -7 8 -8 15 -2 15 5 0 13 -7 16 -16z m-314 -88 c0 -2
-8 -10 -17 -17 -16 -13 -17 -12 -4 4 13 16 21 21 21 13z m531 -9 c-1 -12 -15
-9 -19 4 -3 6 1 10 8 8 6 -3 11 -8 11 -12z m512 -35 c-15 -20 -28 -39 -29 -41
-2 -1 -8 0 -14 4 -7 4 1 21 21 46 39 49 59 41 22 -9z m-536 2 c-9 -9 -28 6
-21 18 4 6 10 6 17 -1 6 -6 8 -13 4 -17z m-557 1 c-7 -8 -18 -15 -24 -15 -6 0
-2 7 8 15 25 19 32 19 16 0z m501 -63 c-6 -2 -11 -10 -11 -17 0 -15 -74 -91
-104 -107 -16 -8 -14 -2 9 22 l30 33 -32 -23 c-18 -13 -36 -35 -42 -50 -5 -15
-28 -40 -51 -56 -23 -16 -58 -46 -78 -68 -21 -21 -64 -56 -97 -78 -33 -23 -64
-46 -70 -52 -5 -6 -44 -31 -85 -56 -41 -24 -88 -55 -104 -68 -16 -12 -41 -25
-55 -28 -15 -3 -38 -15 -51 -26 -17 -13 -19 -18 -7 -14 9 3 17 1 17 -5 0 -7
-10 -9 -24 -5 -16 4 -28 0 -37 -11 -13 -15 -9 -16 43 -10 32 3 58 1 60 -4 2
-5 17 -5 38 1 19 6 107 9 195 8 88 -1 170 2 183 6 13 5 22 3 22 -3 0 -6 8 -12
18 -12 9 -1 1 -5 -18 -9 -22 -4 2 -6 65 -6 55 1 145 -2 200 -6 65 -5 95 -4 85
2 -8 6 -48 9 -88 9 -40 -1 -75 1 -79 5 -3 3 16 6 43 6 27 0 114 2 194 4 80 2
189 0 243 -5 54 -5 182 -8 285 -7 103 0 223 1 267 1 44 1 91 -3 104 -8 16 -5
-6 22 -62 80 -48 49 -87 92 -87 96 0 8 -72 100 -161 207 -29 34 -54 69 -55 77
-1 9 -18 34 -38 55 -20 22 -36 44 -36 48 0 5 14 21 30 37 l31 30 27 -35 c15
-19 44 -54 65 -77 23 -25 36 -47 31 -54 -4 -7 -3 -9 4 -5 11 6 25 -9 28 -30 1
-6 44 -62 95 -125 52 -63 112 -139 133 -169 51 -72 59 -79 51 -55 -6 19 -5 19
7 2 39 -55 98 -151 98 -158 0 -5 -11 -9 -25 -9 -14 0 -25 3 -25 8 0 4 -143 8
-318 9 -174 1 -387 4 -472 8 -85 3 -164 6 -175 7 -11 0 -119 -2 -240 -5 -125
-3 -211 -2 -200 3 16 7 12 9 -20 11 l-40 2 40 7 c36 6 33 7 -27 9 -37 0 -100
-3 -140 -8 -119 -16 -261 -23 -255 -14 3 4 -34 5 -81 1 -48 -3 -123 -7 -166
-7 l-79 -1 19 22 c16 19 16 20 1 9 -9 -8 -20 -12 -23 -9 -2 3 7 13 22 23 15 9
23 12 20 6 -13 -21 11 -11 35 15 21 22 21 24 4 19 -20 -7 -20 -6 -1 9 11 9 25
16 32 16 6 0 23 9 38 21 24 19 36 15 19 -7 -5 -5 10 8 32 29 71 68 79 74 135
105 30 16 61 27 69 25 8 -3 11 -1 7 5 -3 6 4 14 16 18 20 6 74 39 146 89 12 9
20 20 18 24 -6 9 39 54 73 71 19 10 22 10 15 -2 -18 -30 138 86 235 174 53 48
67 56 79 46 9 -8 10 -14 3 -16z m-111 -36 c0 -7 -134 -116 -143 -116 -4 0 19
22 52 50 33 27 62 54 66 60 6 10 25 14 25 6z m949 -120 c-3 -3 -18 12 -33 32
l-29 37 34 -32 c18 -18 31 -35 28 -37z m-623 21 c4 -4 1 -7 -6 -7 -7 0 0 -10
14 -21 21 -17 25 -24 14 -30 -20 -13 -28 -11 -28 10 0 10 -7 24 -15 31 -8 7
-15 16 -15 20 0 10 26 7 36 -3z m54 -12 c16 -17 20 -29 14 -35 -12 -12 -54 23
-54 45 0 22 13 18 40 -10z m120 19 c0 -4 -8 -13 -17 -20 -17 -13 -17 -14 1 -7
14 4 17 3 12 -6 -5 -7 -15 -10 -23 -7 -8 3 -25 -1 -39 -10 -14 -10 -24 -12
-24 -6 0 6 17 23 37 37 38 25 53 31 53 19z m-5090 -8 c0 -2 -16 -6 -35 -8 -19
-2 -35 0 -35 4 0 4 16 8 35 8 19 0 35 -2 35 -4z m4647 -2 c-3 -3 -12 -4 -19
-1 -8 3 -5 6 6 6 11 1 17 -2 13 -5z m113 -5 c17 -6 7 -7 -34 -4 -33 3 -62 7
-64 10 -9 8 71 4 98 -6z m365 1 c-3 -5 -10 -10 -16 -10 -5 0 -9 5 -9 10 0 6 7
10 16 10 8 0 12 -4 9 -10z m226 -47 c13 -16 12 -17 -3 -4 -10 7 -18 15 -18 17
0 8 8 3 21 -13z m-321 -43 c12 -17 25 -28 30 -25 12 7 20 -8 12 -21 -10 -16
-122 -27 -122 -13 0 8 -14 10 -40 6 -22 -3 -59 -2 -82 1 -42 6 -42 6 -13 13
17 4 55 7 85 8 l55 2 -40 18 c-22 11 -36 20 -32 20 5 1 17 -4 28 -10 15 -7 24
-7 35 1 7 7 20 10 28 7 10 -4 13 -1 9 9 -10 26 25 15 47 -16z m-330 0 c0 -5
-7 -10 -15 -10 -8 0 -15 5 -15 10 0 6 7 10 15 10 8 0 15 -4 15 -10z m163 3
c-7 -2 -19 -2 -25 0 -7 3 -2 5 12 5 14 0 19 -2 13 -5z m-608 -67 c-22 -13 -55
-36 -73 -51 -36 -30 -55 -30 -22 0 25 23 111 74 125 74 6 0 -8 -10 -30 -23z
m-375 -17 c-27 -21 -71 -47 -55 -32 19 18 68 53 74 53 3 0 -5 -9 -19 -21z
m1713 -201 l18 -33 -26 30 c-14 17 -31 39 -37 50 -10 19 -10 19 8 3 10 -9 27
-32 37 -50z m-1993 28 c0 -6 -255 -165 -277 -173 -11 -5 -14 -3 -8 6 6 11 3
11 -16 1 -34 -18 -38 -24 -9 -15 34 10 17 -5 -42 -40 -56 -31 -65 -27 -12 6
22 14 32 24 24 29 -11 7 121 83 150 85 8 1 53 25 100 53 88 54 90 55 90 48z
m843 -43 c-7 -2 -19 -2 -25 0 -7 3 -2 5 12 5 14 0 19 -2 13 -5z m194 -79 c-3
-3 -12 -4 -19 -1 -8 3 -5 6 6 6 11 1 17 -2 13 -5z m1723 -57 c0 -5 12 -25 26
-45 l26 -37 -36 40 c-33 37 -67 89 -66 104 1 9 50 -53 50 -62z m-2940 39 c0
-4 -97 -66 -144 -92 l-40 -21 38 -13 c29 -9 34 -15 26 -25 -9 -11 -16 -10 -41
2 -17 8 -29 21 -27 30 2 8 43 39 92 69 88 53 96 57 96 50z m2911 -58 c24 -29
36 -47 26 -39 -20 16 -81 91 -74 91 2 0 24 -24 48 -52z m-3251 37 c0 -2 -28
-20 -61 -40 -39 -23 -65 -33 -71 -27 -6 6 -5 13 3 17 8 6 10 4 4 -5 -5 -8 -3
-11 6 -8 8 3 13 10 12 16 -2 6 4 9 13 5 9 -3 14 0 12 8 -2 9 4 13 16 11 10 -2
15 1 11 7 -4 7 0 8 11 4 10 -4 15 -2 11 3 -3 6 3 11 14 11 10 1 19 0 19 -2z
m76 -87 c-56 -40 -58 -43 -35 -48 24 -6 24 -6 3 -18 -12 -6 -32 -8 -49 -4
l-28 8 49 35 c73 52 98 68 109 68 5 1 -17 -18 -49 -41z m-226 17 c0 -2 -10 -9
-22 -15 -22 -11 -22 -10 -4 4 21 17 26 19 26 11z m2439 1 c-10 -9 -79 -14 -74
-5 4 5 22 9 42 9 20 0 34 -2 32 -4z m404 -23 c-7 -2 -19 -2 -25 0 -7 3 -2 5
12 5 14 0 19 -2 13 -5z m-2893 -8 c0 -2 -10 -9 -22 -15 -22 -11 -22 -10 -4 4
21 17 26 19 26 11z m3451 -119 c16 -21 29 -43 29 -48 0 -9 -37 34 -109 126
-24 30 -23 30 13 -4 21 -19 51 -53 67 -74z m-3131 54 c0 -5 -6 -10 -14 -10 -8
0 -18 5 -21 10 -3 6 3 10 14 10 12 0 21 -4 21 -10z m1768 -17 c-10 -2 -28 -2
-40 0 -13 2 -5 4 17 4 22 1 32 -1 23 -4z m-530 -28 c3 -3 -58 -5 -136 -5 -78
0 -142 4 -142 8 0 10 269 7 278 -3z m567 -5 c-11 -5 -36 -8 -55 -8 l-35 1 40
7 c57 10 74 10 50 0z m1584 -100 c93 -107 118 -149 38 -63 -54 59 -86 97 -117
143 -32 48 -25 40 79 -80z m-1821 93 c-15 -2 -42 -2 -60 0 -18 2 -6 4 27 4 33
0 48 -2 33 -4z m1812 -130 l31 -43 -28 1 c-20 0 -23 2 -11 7 11 5 14 12 9 20
-5 8 -11 13 -15 13 -3 -1 -7 2 -7 7 -1 4 -23 31 -50 60 -27 30 -49 59 -49 65
1 14 74 -66 120 -130z m-2753 121 c-3 -3 -12 -4 -19 -1 -8 3 -5 6 6 6 11 1 17
-2 13 -5z m1111 -31 c-10 -2 -26 -2 -35 0 -10 3 -2 5 17 5 19 0 27 -2 18 -5z
m715 0 c-7 -2 -21 -2 -30 0 -10 3 -4 5 12 5 17 0 24 -2 18 -5z m-6904 -7 c-2
-2 -57 -7 -123 -11 -86 -5 -117 -4 -112 4 5 7 49 11 123 11 64 0 114 -2 112
-4z m4126 -6 c4 -6 -10 -10 -37 -9 -40 1 -41 2 -13 9 43 11 43 11 50 0z m3462
4 c-3 -3 -12 -4 -19 -1 -8 3 -5 6 6 6 11 1 17 -2 13 -5z m-853 -16 l141 -1
-110 -12 c-98 -10 -106 -12 -70 -19 78 -16 71 -25 -20 -25 -95 0 -207 11 -240
23 -13 5 -15 5 -8 -1 8 -6 -92 -9 -250 -9 -212 0 -235 1 -117 6 88 3 116 7 73
8 -58 2 -73 5 -73 17 0 13 12 15 78 9 43 -3 94 -1 117 5 24 6 100 9 189 6 82
-3 213 -6 290 -7z m204 -5 c-10 -2 -26 -2 -35 0 -10 3 -2 5 17 5 19 0 27 -2
18 -5z m-2318 -23 c11 -7 -2 -10 -43 -10 -36 0 -56 4 -52 10 8 13 75 13 95 0z
m1280 -10 c-18 -12 -58 -12 -85 0 -14 6 -3 9 40 9 42 1 56 -2 45 -9z m-1935
-20 c12 -6 -13 -7 -65 -3 -47 3 -87 7 -89 9 -9 8 135 2 154 -6z m933 3 c-15
-2 -42 -2 -60 0 -18 2 -6 4 27 4 33 0 48 -2 33 -4z m980 -10 c-16 -2 -40 -2
-55 0 -16 2 -3 4 27 4 30 0 43 -2 28 -4z m-1709 -7 c-2 -2 -33 -6 -67 -10 -44
-5 -62 -4 -57 3 3 6 34 11 67 11 34 0 59 -2 57 -4z m2009 -13 c-10 -2 -28 -2
-40 0 -13 2 -5 4 17 4 22 1 32 -1 23 -4z m647 -3 c7 -12 -53 -12 -110 -1 -36
8 -33 9 32 10 39 0 75 -3 78 -9z m-2635 -9 c-20 -11 -257 -25 -246 -14 4 4 60
11 124 14 64 3 122 6 127 7 6 1 3 -2 -5 -7z m900 -1 c-52 -4 -102 -3 -110 1
-8 5 35 8 95 7 l110 -1 -95 -7z m1483 3 c-18 -2 -48 -2 -65 0 -18 2 -4 4 32 4
36 0 50 -2 33 -4z m1022 -3 c-8 -13 -35 -13 -55 0 -11 7 -5 10 23 10 23 0 36
-4 32 -10z m-32 -27 c-7 -2 -21 -2 -30 0 -10 3 -4 5 12 5 17 0 24 -2 18 -5z
m267 -3 c0 -12 -74 -12 -110 0 -18 6 -7 8 43 9 38 1 67 -3 67 -9z m-1862 -7
c-10 -2 -28 -2 -40 0 -13 2 -5 4 17 4 22 1 32 -1 23 -4z"/>
        <path d="M5422 7920 c-56 -8 -82 -20 -41 -19 13 0 53 6 89 14 70 14 39 17 -48
5z"/>
        <path d="M5605 7921 c-30 -5 -36 -8 -22 -14 27 -11 51 -9 88 8 l34 14 -30 -1
c-16 0 -48 -4 -70 -7z"/>
        <path d="M5703 7818 c-26 -30 -40 -53 -25 -44 12 7 56 66 49 66 -2 0 -13 -10
-24 -22z"/>
        <path d="M4050 7770 c-19 -11 -32 -19 -29 -20 11 0 79 30 79 35 0 9 -14 5 -50
-15z"/>
        <path d="M4119 7742 c5 -10 18 -25 28 -33 12 -10 11 -5 -6 19 -24 35 -38 43
-22 14z"/>
        <path d="M5767 7703 c-14 -21 -36 -51 -48 -68 l-23 -30 27 24 c32 29 82 99 75
106 -3 3 -17 -12 -31 -32z"/>
        <path d="M5647 7578 c-48 -60 -56 -81 -12 -33 36 40 60 75 51 75 -3 0 -20 -19
-39 -42z"/>
        <path d="M4230 7593 c0 -4 12 -21 26 -38 l25 -30 -15 32 c-16 31 -36 52 -36
36z"/>
        <path d="M4280 7475 c13 -14 25 -25 27 -25 2 0 -4 11 -13 25 -9 14 -21 25 -27
25 -6 0 0 -11 13 -25z"/>
        <path d="M5511 7403 c-25 -32 -29 -34 -24 -14 4 15 2 22 -4 18 -15 -10 -23
-47 -10 -47 6 0 -1 -12 -15 -27 -14 -16 -64 -84 -112 -153 -47 -69 -73 -109
-55 -90 17 19 59 76 94 125 35 50 76 106 92 125 37 45 76 100 70 100 -3 0 -19
-17 -36 -37z"/>
        <path d="M4326 7360 c9 -18 96 -130 100 -130 12 0 0 21 -29 51 -18 19 -43 48
-55 64 -13 17 -20 23 -16 15z"/>
        <path d="M5084 6875 c-9 -14 -14 -28 -11 -31 3 -3 13 8 22 25 19 37 12 41 -11
6z"/>
        <path d="M3729 5020 c-13 -10 -19 -19 -13 -20 6 0 19 9 29 20 23 26 14 26 -16
0z"/>
        <path d="M2283 4890 c0 -25 2 -35 4 -22 2 12 2 32 0 45 -2 12 -4 2 -4 -23z"/>
        <path d="M3113 4208 c-19 -25 -24 -38 -14 -38 11 0 35 39 28 46 -2 3 -9 -1
-14 -8z"/>
        <path d="M3051 4171 c-23 -31 -27 -46 -11 -36 11 7 43 65 36 65 -3 0 -14 -13
-25 -29z"/>
        <path d="M2883 3973 c-21 -27 -51 -65 -67 -87 -26 -34 -26 -37 -7 -26 12 6 25
19 28 28 4 9 22 37 42 62 50 64 54 70 48 70 -3 0 -23 -21 -44 -47z"/>
        <path d="M6789 7560 c13 -11 27 -20 32 -20 18 0 8 10 -23 25 l-33 16 24 -21z"/>
        <path d="M6881 7511 c-10 -6 -2 -16 30 -38 80 -54 83 -46 4 10 -14 10 -23 22
-20 28 8 11 4 11 -14 0z"/>
        <path d="M7100 7331 c19 -17 39 -31 44 -31 15 0 -11 24 -46 43 l-33 19 35 -31z"/>
        <path d="M7440 6987 c0 -2 15 -16 33 -33 l32 -29 -29 33 c-28 30 -36 37 -36
29z"/>
        <path d="M7496 6975 c4 -8 11 -15 16 -15 6 0 5 6 -2 15 -7 8 -14 15 -16 15 -2
0 -1 -7 2 -15z"/>
        <path d="M7536 6872 c26 -46 53 -68 31 -26 -9 17 -24 37 -33 45 -16 12 -15 10
2 -19z"/>
        <path d="M7600 6813 c0 -5 7 -18 15 -29 12 -16 14 -16 15 -3 0 9 -7 22 -15 29
-8 7 -15 8 -15 3z"/>
        <path d="M7640 6752 c0 -5 7 -15 15 -22 8 -7 15 -8 15 -2 0 5 -7 15 -15 22 -8
7 -15 8 -15 2z"/>
        <path d="M7810 6500 c6 -11 13 -20 16 -20 2 0 0 9 -6 20 -6 11 -13 20 -16 20
-2 0 0 -9 6 -20z"/>
        <path d="M7816 6441 c21 -37 54 -59 36 -25 -5 11 -7 24 -5 31 2 6 -1 14 -6 18
-7 4 -8 -1 -4 -12 6 -16 4 -16 -17 2 l-24 20 20 -34z"/>
        <path d="M7991 6025 c0 -11 4 -27 9 -35 9 -13 10 -13 9 0 0 8 -4 24 -9 35 l-9
20 0 -20z"/>
        <path d="M8018 5975 c-8 -8 18 -99 30 -103 16 -5 6 78 -11 95 -7 7 -16 11 -19
8z"/>
        <path d="M8158 5128 c-3 -29 -1 -60 3 -68 5 -9 9 13 9 53 0 80 -6 88 -12 15z"/>
        <path d="M7120 4832 c0 -5 10 -17 21 -28 22 -19 22 -19 10 3 -12 24 -31 39
-31 25z"/>
        <path d="M8131 4745 c1 -43 2 -46 9 -22 5 16 5 38 0 50 -7 17 -9 10 -9 -28z"/>
        <path d="M7267 4625 c12 -16 34 -41 49 -55 27 -24 27 -24 -4 16 -40 52 -76 83
-45 39z"/>
        <path d="M7996 4094 c-26 -74 -46 -138 -43 -140 3 -3 18 32 34 78 46 128 65
189 61 193 -2 3 -26 -56 -52 -131z"/>
        <path d="M5777 6239 c10 -17 27 -38 37 -47 11 -9 5 4 -13 31 -36 53 -52 64
-24 16z"/>
        <path d="M5661 5965 c0 -15 47 -70 54 -63 4 3 -7 21 -24 40 -17 18 -30 29 -30
23z"/>
        <path d="M5776 5810 c10 -21 19 -30 22 -21 2 7 -6 23 -18 35 l-22 21 18 -35z"/>
        <path d="M5830 5744 c0 -21 211 -294 227 -294 10 0 4 13 -21 40 -20 22 -36 44
-36 50 0 5 -21 30 -46 56 -25 26 -61 71 -80 101 -31 49 -44 63 -44 47z"/>
        <path d="M5730 5683 c0 -13 55 -89 72 -99 10 -6 -22 43 -69 105 -2 2 -3 0 -3
-6z"/>
        <path d="M5830 5654 c0 -3 11 -22 25 -42 30 -44 33 -33 4 14 -19 32 -29 41
-29 28z"/>
        <path d="M5935 5499 c21 -30 49 -66 63 -81 13 -14 21 -31 18 -36 -6 -10 13
-30 47 -47 11 -5 22 -16 25 -24 3 -8 0 -11 -7 -7 -17 11 -13 0 6 -15 14 -12
16 -12 8 0 -5 9 -4 12 3 7 6 -4 9 -13 5 -21 -3 -8 0 -15 7 -15 6 0 23 -14 37
-30 14 -17 28 -29 30 -26 6 6 -23 52 -60 95 -15 18 -32 43 -37 55 -14 35 -94
130 -140 166 l-43 34 38 -55z"/>
        <path d="M6095 5370 c5 -8 52 -68 104 -133 53 -65 106 -134 117 -154 12 -19
32 -45 44 -57 l23 -21 -23 40 c-13 22 -31 50 -39 61 -77 103 -128 173 -137
189 -5 10 -30 34 -54 54 -24 20 -40 29 -35 21z"/>
        <path d="M6140 5122 c0 -5 10 -17 22 -28 l21 -19 -18 28 c-18 28 -25 33 -25
19z"/>
        <path d="M6429 4935 c17 -34 89 -110 96 -103 4 4 -18 33 -50 65 -31 32 -52 49
-46 38z"/>
        <path d="M7110 4248 c0 -18 18 -34 28 -24 3 4 -2 14 -11 23 -16 16 -17 16 -17
1z"/>
        <path d="M7649 3493 c-13 -16 -12 -17 4 -4 16 13 21 21 13 21 -2 0 -10 -8 -17
-17z"/>
        <path d="M6040 5712 c6 -13 14 -21 18 -18 3 4 -2 14 -12 24 -18 16 -18 16 -6
-6z"/>
        <path d="M6640 5031 c0 -5 5 -13 10 -16 6 -3 10 -2 10 4 0 5 -4 13 -10 16 -5
3 -10 2 -10 -4z"/>
        <path d="M8571 4684 c0 -11 3 -14 6 -6 3 7 2 16 -1 19 -3 4 -6 -2 -5 -13z"/>
        <path d="M8457 4126 c-9 -27 -17 -57 -17 -65 1 -9 10 9 20 39 11 30 19 59 17
65 -2 5 -11 -12 -20 -39z"/>
        <path d="M8411 3978 c-10 -30 -9 -31 4 -14 8 11 15 26 15 33 0 22 -8 14 -19
-19z"/>
        <path d="M7050 4631 c0 -5 5 -13 10 -16 6 -3 10 -2 10 4 0 5 -4 13 -10 16 -5
3 -10 2 -10 -4z"/>
        <path d="M7581 4020 c29 -46 29 -45 29 -32 0 6 -12 24 -26 39 l-26 28 23 -35z"/>
        <path d="M8620 2656 c0 -2 8 -10 18 -17 15 -13 16 -12 3 4 -13 16 -21 21 -21
13z"/>
        <path d="M9020 2197 c19 -26 41 -53 49 -60 8 -7 0 10 -19 36 -19 26 -41 53
-49 60 -8 7 0 -10 19 -36z"/>
        <path d="M9154 1730 c22 -4 51 -4 65 0 19 6 7 8 -39 8 -58 0 -61 -1 -26 -8z"/>
        <path d="M6086 2050 c-70 -43 -130 -89 -86 -65 35 19 170 107 170 111 0 7 -2
6 -84 -46z"/>
        <path d="M5852 1910 c-23 -17 -42 -32 -42 -35 0 -8 78 33 85 46 14 22 -3 18
-43 -11z"/>
        <path d="M7068 1743 c23 -2 61 -2 85 0 23 2 4 4 -43 4 -47 0 -66 -2 -42 -4z"/>
        <path d="M6948 2260 c-53 -35 -83 -66 -52 -52 38 15 92 53 98 67 7 20 6 20
-46 -15z"/>
        <path d="M7908 2073 c7 -3 16 -2 19 1 4 3 -2 6 -13 5 -11 0 -14 -3 -6 -6z"/>
        <path d="M7038 2033 c12 -2 30 -2 40 0 9 3 -1 5 -23 4 -22 0 -30 -2 -17 -4z"/>
        <path d="M7118 2033 c7 -3 16 -2 19 1 4 3 -2 6 -13 5 -11 0 -14 -3 -6 -6z"/>
        <path d="M8455 2010 c29 -13 94 -13 75 0 -8 5 -33 9 -55 9 -31 0 -36 -2 -20
-9z"/>
        <path d="M8143 1733 c15 -2 37 -2 50 0 12 2 0 4 -28 4 -27 0 -38 -2 -22 -4z"/>
        <path d="M5705 5520 c4 -14 17 -34 28 -45 12 -11 16 -13 9 -5 -6 7 -12 22 -12
31 0 9 -7 23 -16 30 -15 12 -16 11 -9 -11z"/>
        <path d="M4910 5263 c-24 -35 -27 -42 -11 -28 21 18 57 75 48 75 -2 0 -19 -21
-37 -47z"/>
        <path d="M5888 5204 c13 -24 40 -49 47 -42 3 2 -9 18 -26 34 -24 22 -29 24
-21 8z"/>
        <path d="M4829 5153 c-38 -42 -135 -183 -126 -183 3 0 39 47 80 105 42 58 75
105 73 105 -1 0 -14 -12 -27 -27z"/>
        <path d="M4382 4557 l-43 -62 45 50 c25 28 45 56 46 63 0 18 -1 16 -48 -51z"/>
        <path d="M6457 4393 c-5 -8 57 -83 69 -83 3 0 -7 17 -22 38 -40 53 -41 55 -47
45z"/>
        <path d="M6640 4145 c7 -8 17 -15 22 -15 6 0 5 7 -2 15 -7 8 -17 15 -22 15 -6
0 -5 -7 2 -15z"/>
        <path d="M6670 4111 c0 -5 5 -13 10 -16 6 -3 10 -2 10 4 0 5 -4 13 -10 16 -5
3 -10 2 -10 -4z"/>
        <path d="M6900 3851 c0 -5 7 -15 17 -22 15 -13 15 -12 4 9 -12 23 -21 28 -21
13z"/>
        <path d="M6891 3798 c28 -54 42 -69 50 -57 4 7 -3 26 -18 46 -29 37 -50 45
-32 11z"/>
        <path d="M7000 3667 c0 -9 80 -117 87 -117 3 0 -3 13 -14 28 -28 43 -73 98
-73 89z"/>
        <path d="M7240 3343 c0 -5 14 -24 30 -43 l31 -35 -15 31 c-15 32 -46 63 -46
47z"/>
        <path d="M7349 3192 c5 -10 17 -25 26 -32 13 -11 13 -8 -2 18 -19 33 -41 46
-24 14z"/>
        <path d="M4068 1753 c6 -2 18 -2 25 0 6 3 1 5 -13 5 -14 0 -19 -2 -12 -5z"/>
        <path d="M4128 1745 c9 -5 85 -11 167 -12 139 -1 143 -1 60 7 -158 14 -246 16
-227 5z"/>
        <path d="M4660 1750 c-24 -8 -24 -8 5 -8 17 0 39 3 50 8 18 8 18 9 -5 8 -14 0
-36 -4 -50 -8z"/>
        <path d="M3533 1743 c15 -2 39 -2 55 0 15 2 2 4 -28 4 -30 0 -43 -2 -27 -4z"/>
        <path d="M3728 1743 c17 -2 47 -2 65 0 17 2 3 4 -33 4 -36 0 -50 -2 -32 -4z"/>
        <path d="M5435 1670 c27 -12 35 -12 35 0 0 6 -12 10 -27 9 -25 0 -26 -1 -8 -9z"/>
    </g>
</svg>
